<svg width="24" height="37" viewBox="0 0 24 37" fill="none" xmlns="http://www.w3.org/2000/svg">
<path d="M18.9999 10.5C18.9999 9.39999 18.0999 8.5 16.9999 8.5H13.9999V10.5H16.9999V13.15L13.5199 17.4999H9.99993V12.5H5.99997C3.78998 12.5 2 14.29 2 16.4999V19.4999H3.99998C3.99998 21.1599 5.33997 22.4999 6.99996 22.4999C8.65994 22.4999 9.99993 21.1599 9.99993 19.4999H14.4799L18.9999 13.85V10.5ZM6.99996 20.4999C6.44996 20.4999 5.99997 20.0499 5.99997 19.4999H7.99995C7.99995 20.0499 7.54995 20.4999 6.99996 20.4999Z" fill="#7A2180"/>
<path d="M9.99996 9.5H5V11.5H9.99996V9.5Z" fill="#7A2180"/>
<path d="M19 16.5C17.34 16.5 16 17.84 16 19.5C16 21.16 17.34 22.4999 19 22.4999C20.66 22.4999 21.9999 21.16 21.9999 19.5C21.9999 17.84 20.66 16.5 19 16.5ZM19 20.5C18.45 20.5 18 20.05 18 19.5C18 18.95 18.45 18.5 19 18.5C19.55 18.5 20 18.95 20 19.5C20 20.05 19.55 20.5 19 20.5Z" fill="#7A2180"/>
</svg>
