<svg width="24" height="37" viewBox="0 0 24 37" fill="none" xmlns="http://www.w3.org/2000/svg">
<path d="M5.26562 20.2895C5.26562 21.0305 5.59405 21.6958 6.10773 22.1589V23.6579C6.10773 24.1211 6.48668 24.5 6.94984 24.5H7.79194C8.2551 24.5 8.63405 24.1211 8.63405 23.6579V22.8158H15.3709V23.6579C15.3709 24.1211 15.7498 24.5 16.213 24.5H17.0551C17.5183 24.5 17.8972 24.1211 17.8972 23.6579V22.1589C18.4109 21.6958 18.7393 21.0305 18.7393 20.2895V11.8684C18.7393 8.92105 15.7246 8.5 12.0025 8.5C8.28036 8.5 5.26562 8.92105 5.26562 11.8684V20.2895ZM8.21299 21.1316C7.51405 21.1316 6.94984 20.5674 6.94984 19.8684C6.94984 19.1695 7.51405 18.6053 8.21299 18.6053C8.91194 18.6053 9.47615 19.1695 9.47615 19.8684C9.47615 20.5674 8.91194 21.1316 8.21299 21.1316ZM15.7919 21.1316C15.093 21.1316 14.5288 20.5674 14.5288 19.8684C14.5288 19.1695 15.093 18.6053 15.7919 18.6053C16.4909 18.6053 17.0551 19.1695 17.0551 19.8684C17.0551 20.5674 16.4909 21.1316 15.7919 21.1316ZM17.0551 16.0789H6.94984V11.8684H17.0551V16.0789Z" fill="#7A2180"/>
</svg>