<svg width="16" height="15" viewBox="0 0 16 15" fill="none" xmlns="http://www.w3.org/2000/svg">
<path d="M14.1511 0.975903C13.9733 0.451459 13.4756 0.078125 12.8889 0.078125H3.11111C2.52444 0.078125 2.03556 0.451459 1.84889 0.975903L0 6.30035V13.4115C0 13.9003 0.4 14.3003 0.888889 14.3003H1.77778C2.26667 14.3003 2.66667 13.9003 2.66667 13.4115V12.5226H13.3333V13.4115C13.3333 13.9003 13.7333 14.3003 14.2222 14.3003H15.1111C15.6 14.3003 16 13.9003 16 13.4115V6.30035L14.1511 0.975903ZM3.11111 9.8559C2.37333 9.8559 1.77778 9.26035 1.77778 8.52257C1.77778 7.78479 2.37333 7.18924 3.11111 7.18924C3.84889 7.18924 4.44444 7.78479 4.44444 8.52257C4.44444 9.26035 3.84889 9.8559 3.11111 9.8559ZM12.8889 9.8559C12.1511 9.8559 11.5556 9.26035 11.5556 8.52257C11.5556 7.78479 12.1511 7.18924 12.8889 7.18924C13.6267 7.18924 14.2222 7.78479 14.2222 8.52257C14.2222 9.26035 13.6267 9.8559 12.8889 9.8559ZM1.77778 5.41146L3.11111 1.41146H12.8889L14.2222 5.41146H1.77778Z" fill="#6D50FF"/>
</svg>
