<svg width="24" height="37" viewBox="0 0 24 37" fill="none" xmlns="http://www.w3.org/2000/svg">
<path d="M18.1511 9.39778C17.9733 8.87333 17.4756 8.5 16.8889 8.5H7.11111C6.52444 8.5 6.03556 8.87333 5.84889 9.39778L4 14.7222V21.8333C4 22.3222 4.4 22.7222 4.88889 22.7222H5.77778C6.26667 22.7222 6.66667 22.3222 6.66667 21.8333V20.9444H17.3333V21.8333C17.3333 22.3222 17.7333 22.7222 18.2222 22.7222H19.1111C19.6 22.7222 20 22.3222 20 21.8333V14.7222L18.1511 9.39778ZM7.11111 18.2778C6.37333 18.2778 5.77778 17.6822 5.77778 16.9444C5.77778 16.2067 6.37333 15.6111 7.11111 15.6111C7.84889 15.6111 8.44444 16.2067 8.44444 16.9444C8.44444 17.6822 7.84889 18.2778 7.11111 18.2778ZM16.8889 18.2778C16.1511 18.2778 15.5556 17.6822 15.5556 16.9444C15.5556 16.2067 16.1511 15.6111 16.8889 15.6111C17.6267 15.6111 18.2222 16.2067 18.2222 16.9444C18.2222 17.6822 17.6267 18.2778 16.8889 18.2778ZM5.77778 13.8333L7.11111 9.83333H16.8889L18.2222 13.8333H5.77778Z" fill="#7A2180"/>
</svg>
