<svg width="24" height="25" viewBox="0 0 24 25" fill="none" xmlns="http://www.w3.org/2000/svg">
<path d="M19.12 15.5044C18.0267 15.5044 16.9689 15.3267 15.9822 15.0067C15.6711 14.9 15.3244 14.98 15.0844 15.22L13.6889 16.9711C11.1733 15.7711 8.81778 13.5044 7.56444 10.9L9.29778 9.42444C9.53778 9.17556 9.60889 8.82889 9.51111 8.51778C9.18222 7.53111 9.01333 6.47333 9.01333 5.38C9.01333 4.9 8.61333 4.5 8.13333 4.5H5.05778C4.57778 4.5 4 4.71333 4 5.38C4 13.6378 10.8711 20.5 19.12 20.5C19.7511 20.5 20 19.94 20 19.4511V16.3844C20 15.9044 19.6 15.5044 19.12 15.5044Z" fill="#7A2180"/>
</svg>