<svg width="24" height="25" viewBox="0 0 24 25" fill="none" xmlns="http://www.w3.org/2000/svg">
<path d="M16 4.5H8C7.12 4.5 6.4 5.22 6.4 6.1V7.7C6.4 8.58 7.12 9.3 8 9.3H16C16.88 9.3 17.6 8.58 17.6 7.7V6.1C17.6 5.22 16.88 4.5 16 4.5ZM16 7.7H8V6.1H16V7.7ZM18.4 20.5H5.6C4.72 20.5 4 19.78 4 18.9V18.1H20V18.9C20 19.78 19.28 20.5 18.4 20.5ZM17.224 11.052C16.968 10.476 16.392 10.1 15.76 10.1H8.24C7.608 10.1 7.032 10.476 6.776 11.052L4 17.3H20L17.224 11.052ZM10 15.7H9.2C8.976 15.7 8.8 15.524 8.8 15.3C8.8 15.076 8.976 14.9 9.2 14.9H10C10.224 14.9 10.4 15.076 10.4 15.3C10.4 15.524 10.224 15.7 10 15.7ZM10 14.1H9.2C8.976 14.1 8.8 13.924 8.8 13.7C8.8 13.476 8.976 13.3 9.2 13.3H10C10.224 13.3 10.4 13.476 10.4 13.7C10.4 13.924 10.224 14.1 10 14.1ZM10 12.5H9.2C8.976 12.5 8.8 12.324 8.8 12.1C8.8 11.876 8.976 11.7 9.2 11.7H10C10.224 11.7 10.4 11.876 10.4 12.1C10.4 12.324 10.224 12.5 10 12.5ZM12.4 15.7H11.6C11.376 15.7 11.2 15.524 11.2 15.3C11.2 15.076 11.376 14.9 11.6 14.9H12.4C12.624 14.9 12.8 15.076 12.8 15.3C12.8 15.524 12.624 15.7 12.4 15.7ZM12.4 14.1H11.6C11.376 14.1 11.2 13.924 11.2 13.7C11.2 13.476 11.376 13.3 11.6 13.3H12.4C12.624 13.3 12.8 13.476 12.8 13.7C12.8 13.924 12.624 14.1 12.4 14.1ZM12.4 12.5H11.6C11.376 12.5 11.2 12.324 11.2 12.1C11.2 11.876 11.376 11.7 11.6 11.7H12.4C12.624 11.7 12.8 11.876 12.8 12.1C12.8 12.324 12.624 12.5 12.4 12.5ZM14.8 15.7H14C13.776 15.7 13.6 15.524 13.6 15.3C13.6 15.076 13.776 14.9 14 14.9H14.8C15.024 14.9 15.2 15.076 15.2 15.3C15.2 15.524 15.024 15.7 14.8 15.7ZM14.8 14.1H14C13.776 14.1 13.6 13.924 13.6 13.7C13.6 13.476 13.776 13.3 14 13.3H14.8C15.024 13.3 15.2 13.476 15.2 13.7C15.2 13.924 15.024 14.1 14.8 14.1ZM14.8 12.5H14C13.776 12.5 13.6 12.324 13.6 12.1C13.6 11.876 13.776 11.7 14 11.7H14.8C15.024 11.7 15.2 11.876 15.2 12.1C15.2 12.324 15.024 12.5 14.8 12.5Z" fill="#7A2180"/>
</svg>
