<svg width="16" height="17" viewBox="0 0 16 17" fill="none" xmlns="http://www.w3.org/2000/svg">
<path d="M11.9822 10.8231C12.9689 11.1431 14.0267 11.3209 15.12 11.3209C15.6 11.3209 16 11.7209 16 12.2009V15.2675C16 15.7564 15.7511 16.3164 15.12 16.3164C6.87111 16.3164 0 9.45418 0 1.19641C0 0.52974 0.577778 0.316406 1.05778 0.316406L4.13333 0.316406C4.61333 0.316406 5.01333 0.716406 5.01333 1.19641C5.01333 2.28974 5.18222 3.34752 5.51111 4.33418C5.60889 4.6453 5.53778 4.99196 5.29778 5.24085L3.56445 6.71641C4.81778 9.32085 7.17333 11.5875 9.68889 12.7875L11.0844 11.0364C11.3244 10.7964 11.6711 10.7164 11.9822 10.8231Z" fill="#F0F1F2"/>
</svg>
