<svg width="16" height="17" viewBox="0 0 16 17" fill="none" xmlns="http://www.w3.org/2000/svg">
<path d="M0 2.46528V14.9097C0 15.8875 0.791111 16.6875 1.77778 16.6875H14.2222C15.2 16.6875 16 15.8875 16 14.9097V2.46528C16 1.4875 15.2 0.6875 14.2222 0.6875H1.77778C0.791111 0.6875 0 1.4875 0 2.46528ZM10.6667 6.02083C10.6667 7.49639 9.47556 8.6875 8 8.6875C6.52444 8.6875 5.33333 7.49639 5.33333 6.02083C5.33333 4.54528 6.52444 3.35417 8 3.35417C9.47556 3.35417 10.6667 4.54528 10.6667 6.02083ZM2.66667 13.1319C2.66667 11.3542 6.22222 10.3764 8 10.3764C9.77778 10.3764 13.3333 11.3542 13.3333 13.1319V14.0208H2.66667V13.1319Z" fill="#323232"/>
</svg>
