<svg width="10" height="17" viewBox="0 0 10 17" fill="none" xmlns="http://www.w3.org/2000/svg">
<path d="M5.3467 7.3357C3.32892 6.81125 2.68003 6.26903 2.68003 5.42459C2.68003 4.4557 3.57781 3.78014 5.08003 3.78014C6.66225 3.78014 7.24892 4.5357 7.30225 5.64681H9.2667C9.20447 4.11792 8.27114 2.71348 6.41336 2.26014V0.313477H3.7467V2.23348C2.02225 2.60681 0.635586 3.72681 0.635586 5.44237C0.635586 7.4957 2.33336 8.51792 4.81336 9.11348C7.03559 9.64681 7.48003 10.429 7.48003 11.2557C7.48003 11.869 7.04447 12.8468 5.08003 12.8468C3.24892 12.8468 2.52892 12.029 2.43114 10.9801H0.475586C0.582253 12.9268 2.04003 14.0201 3.7467 14.3846V16.3135H6.41336V14.4024C8.1467 14.0735 9.52448 13.069 9.52448 11.2468C9.52448 8.72237 7.36447 7.86014 5.3467 7.3357Z" fill="white"/>
</svg>
