<svg width="10" height="16" viewBox="0 0 10 16" fill="none" xmlns="http://www.w3.org/2000/svg">
<path d="M5.3467 7.02222C3.32892 6.49778 2.68003 5.95556 2.68003 5.11111C2.68003 4.14222 3.57781 3.46667 5.08003 3.46667C6.66225 3.46667 7.24892 4.22222 7.30225 5.33333H9.2667C9.20447 3.80444 8.27114 2.4 6.41336 1.94667V0H3.7467V1.92C2.02225 2.29333 0.635586 3.41333 0.635586 5.12889C0.635586 7.18222 2.33336 8.20444 4.81336 8.8C7.03559 9.33333 7.48003 10.1156 7.48003 10.9422C7.48003 11.5556 7.04447 12.5333 5.08003 12.5333C3.24892 12.5333 2.52892 11.7156 2.43114 10.6667H0.475586C0.582253 12.6133 2.04003 13.7067 3.7467 14.0711V16H6.41336V14.0889C8.1467 13.76 9.52448 12.7556 9.52448 10.9333C9.52448 8.40889 7.36447 7.54667 5.3467 7.02222Z" fill="#112F80"/>
</svg>
