<svg width="14" height="14" viewBox="0 0 14 14" fill="none" xmlns="http://www.w3.org/2000/svg">
<path d="M1.94444 13.5C1.54722 13.5 1.20706 13.3587 0.923944 13.0761C0.641315 12.7929 0.5 12.4528 0.5 12.0556V1.94444C0.5 1.54722 0.641315 1.20706 0.923944 0.923944C1.20706 0.641315 1.54722 0.5 1.94444 0.5H6.27778C6.48241 0.5 6.65406 0.569093 6.79272 0.707278C6.93091 0.845944 7 1.01759 7 1.22222C7 1.42685 6.93091 1.59826 6.79272 1.73644C6.65406 1.87511 6.48241 1.94444 6.27778 1.94444H1.94444V12.0556H12.0556V7.72222C12.0556 7.51759 12.1249 7.34594 12.2636 7.20728C12.4017 7.06909 12.5731 7 12.7778 7C12.9824 7 13.1538 7.06909 13.292 7.20728C13.4307 7.34594 13.5 7.51759 13.5 7.72222V12.0556C13.5 12.4528 13.3587 12.7929 13.0761 13.0761C12.7929 13.3587 12.4528 13.5 12.0556 13.5H1.94444ZM4.83333 9.16667C4.70093 9.03426 4.63472 8.86574 4.63472 8.66111C4.63472 8.45648 4.70093 8.28796 4.83333 8.15556L11.0444 1.94444H9.16667C8.96204 1.94444 8.79063 1.87511 8.65244 1.73644C8.51378 1.59826 8.44444 1.42685 8.44444 1.22222C8.44444 1.01759 8.51378 0.845944 8.65244 0.707278C8.79063 0.569093 8.96204 0.5 9.16667 0.5H12.7778C12.9824 0.5 13.1538 0.569093 13.292 0.707278C13.4307 0.845944 13.5 1.01759 13.5 1.22222V4.83333C13.5 5.03796 13.4307 5.20937 13.292 5.34756C13.1538 5.48622 12.9824 5.55556 12.7778 5.55556C12.5731 5.55556 12.4017 5.48622 12.2636 5.34756C12.1249 5.20937 12.0556 5.03796 12.0556 4.83333V2.95556L5.82639 9.18472C5.69398 9.31713 5.53148 9.38333 5.33889 9.38333C5.1463 9.38333 4.97778 9.31111 4.83333 9.16667Z" fill="white"/>
</svg>

