<?xml version="1.0" encoding="UTF-8"?><svg id="Layer_1" xmlns="http://www.w3.org/2000/svg" viewBox="0 0 13 13"><defs><style>.cls-1{fill:#6d50ff;}</style></defs><path class="cls-1" d="M1.44,13c-.4,0-.74-.14-1.02-.42-.28-.28-.42-.62-.42-1.02V1.44C0,1.05,.14,.71,.42,.42c.28-.28,.62-.42,1.02-.42H5.78c.2,0,.38,.07,.51,.21,.14,.14,.21,.31,.21,.51s-.07,.38-.21,.51c-.14,.14-.31,.21-.51,.21H1.44V11.56H11.56V7.22c0-.2,.07-.38,.21-.51,.14-.14,.31-.21,.51-.21s.38,.07,.51,.21c.14,.14,.21,.31,.21,.51v4.33c0,.4-.14,.74-.42,1.02-.28,.28-.62,.42-1.02,.42H1.44Zm2.89-4.33c-.13-.13-.2-.3-.2-.51s.07-.37,.2-.51L10.54,1.44h-1.88c-.2,0-.38-.07-.51-.21-.14-.14-.21-.31-.21-.51s.07-.38,.21-.51c.14-.14,.31-.21,.51-.21h3.61c.2,0,.38,.07,.51,.21,.14,.14,.21,.31,.21,.51v3.61c0,.2-.07,.38-.21,.51-.14,.14-.31,.21-.51,.21s-.38-.07-.51-.21c-.14-.14-.21-.31-.21-.51v-1.88l-6.23,6.23c-.13,.13-.29,.2-.49,.2s-.36-.07-.51-.22Z"/></svg>


