<svg width="17" height="17" viewBox="0 0 17 17" fill="none" xmlns="http://www.w3.org/2000/svg">
<path fill-rule="evenodd" clip-rule="evenodd" d="M8.5 0.560547C12.9151 0.560547 16.5 4.14063 16.5 8.56055C16.5 12.9757 12.9199 16.5605 8.5 16.5605C4.08488 16.5605 0.5 12.9805 0.5 8.56055C0.5 4.14543 4.08008 0.560547 8.5 0.560547ZM6.62837 4.16943H10.3716C11.7777 4.16943 12.9247 5.3068 12.9247 6.68892V10.4226C12.9247 11.8095 11.7777 12.9421 10.3716 12.9421H6.62837C5.22226 12.9421 4.07528 11.8095 4.07528 10.4226V6.68892C4.07528 5.302 5.22705 4.16943 6.62837 4.16943ZM8.476 6.18982C9.84373 6.18982 10.9523 7.2984 10.9523 8.66613C10.9523 10.0339 9.84373 11.1424 8.476 11.1424C7.10828 11.1424 5.9997 10.0339 5.9997 8.66613C5.9997 7.2984 7.10828 6.18982 8.476 6.18982ZM8.476 7.02485C9.37822 7.02485 10.1125 7.75911 10.1125 8.66133C10.1125 9.56355 9.37822 10.2978 8.476 10.2978C7.56899 10.2978 6.83953 9.56355 6.83953 8.66133C6.83953 7.75911 7.57378 7.02485 8.476 7.02485ZM10.8707 5.84429C11.0915 5.84429 11.2738 6.02185 11.2738 6.24741C11.2738 6.46816 11.0963 6.65053 10.8707 6.65053C10.65 6.65053 10.4676 6.47296 10.4676 6.24741C10.4676 6.02665 10.6452 5.84429 10.8707 5.84429ZM6.93551 4.88448H10.0645C11.2403 4.88448 12.2001 5.83949 12.2001 7.01046V10.1586C12.2001 11.3296 11.2403 12.2846 10.0645 12.2846H6.93551C5.75975 12.2846 4.79994 11.3296 4.79994 10.1586V7.01046C4.79994 5.83949 5.75975 4.88448 6.93551 4.88448Z" fill="#404040"/>
</svg>
