<svg width="18" height="17" viewBox="0 0 18 17" fill="none" xmlns="http://www.w3.org/2000/svg">
<path d="M9.6962 10.583L7.6642 8.57495L7.6882 8.55095C9.0802 6.99895 10.0722 5.21495 10.6562 3.32695H13.0002V1.72695H7.4002V0.126953H5.8002V1.72695H0.200195V3.31895H9.1362C8.6002 4.86295 7.7522 6.32695 6.6002 7.60695C5.8562 6.78295 5.2402 5.87895 4.7522 4.92695H3.1522C3.7362 6.23095 4.5362 7.46295 5.5362 8.57495L1.4642 12.591L2.6002 13.727L6.6002 9.72695L9.08819 12.215L9.6962 10.583ZM14.2002 6.52695H12.6002L9.0002 16.127H10.6002L11.4962 13.727H15.2962L16.2002 16.127H17.8002L14.2002 6.52695ZM12.1042 12.127L13.4002 8.66295L14.6962 12.127H12.1042Z" fill="#404040"/>
</svg>
