<svg width="29" height="29" viewBox="0 0 29 29" fill="none" xmlns="http://www.w3.org/2000/svg">
<path fill-rule="evenodd" clip-rule="evenodd" d="M14.7194 28.9077C22.6066 28.9077 29.0004 22.5139 29.0004 14.6267C29.0004 6.73953 22.6066 0.345703 14.7194 0.345703C6.83227 0.345703 0.438477 6.73953 0.438477 14.6267C0.438477 22.5139 6.83227 28.9077 14.7194 28.9077ZM6.26282 21.8729H10.3381V10.5745H6.26282V21.8729ZM6.15137 6.56675C6.15137 7.674 6.98322 8.50362 8.22858 8.50362C9.61285 8.50362 10.4431 7.674 10.4431 6.56675C10.4431 5.45951 9.61123 4.62988 8.36587 4.62988C6.98161 4.62988 6.15137 5.45951 6.15137 6.56675ZM20.9309 21.8729H24.8753V15.6975C24.8753 12.1514 23.2972 10.5745 21.325 10.5745C19.3528 10.5745 18.3013 11.2314 17.7763 12.1514V10.5745H13.701V21.8729H17.7763V15.6975C17.7763 13.8591 19.0911 13.596 19.4853 13.596C19.8794 13.596 20.9309 13.9898 20.9309 15.6975V21.8729Z" fill="white"/>
</svg>
