<svg width="16" height="17" viewBox="0 0 16 17" fill="none" xmlns="http://www.w3.org/2000/svg">
<path fill-rule="evenodd" clip-rule="evenodd" d="M8 0.560547C12.4151 0.560547 16 4.14063 16 8.56055C16 12.9757 12.4199 16.5605 8 16.5605C3.58488 16.5605 0 12.9805 0 8.56055C0 4.14543 3.58008 0.560547 8 0.560547ZM6.96821 6.97206H8.60948V7.8119H8.63347C8.86383 7.39918 9.42052 6.97206 10.2555 6.97206C11.988 6.97206 12.3095 8.05185 12.3095 9.45317V12.3134H10.5963V9.7795C10.5963 9.17482 10.5819 8.39738 9.70366 8.39738C8.81104 8.39738 8.67666 9.05485 8.67666 9.73631V12.3134H6.96341V6.97206H6.96821ZM5.78284 5.48916C5.78284 5.97866 5.38452 6.38178 4.89022 6.38178C4.40072 6.38178 3.9976 5.98346 3.9976 5.48916C3.9976 4.99966 4.39592 4.59654 4.89022 4.59654C5.37972 4.59654 5.78284 4.99486 5.78284 5.48916ZM4.0024 6.97206H5.78284V12.3134H4.0024V6.97206Z" fill="#404040"/>
</svg>
