<svg width="24" height="24" viewBox="0 0 24 24" fill="none" xmlns="http://www.w3.org/2000/svg">
<g clip-path="url(#clip0_4457_10444)">
<path d="M17.4044 8.0625V18.75C17.4044 19.3467 17.1691 19.919 16.7501 20.341C16.3311 20.7629 15.7629 21 15.1704 21H6.23407C5.64156 21 5.07332 20.7629 4.65435 20.341C4.23537 19.919 4 19.3467 4 18.75V5.25C4 4.65326 4.23537 4.08097 4.65435 3.65901C5.07332 3.23705 5.64156 3 6.23407 3H12.3778L17.4044 8.0625ZM14.0533 8.0625C13.6089 8.0625 13.1828 7.88471 12.8685 7.56824C12.5543 7.25177 12.3778 6.82255 12.3778 6.375V4.125H10.1437H8.46815H6.23407C5.93782 4.125 5.65369 4.24353 5.44421 4.4545C5.23472 4.66548 5.11704 4.95163 5.11704 5.25V18.75C5.11704 19.0484 5.23472 19.3345 5.44421 19.5455C5.65369 19.7565 5.93782 19.875 6.23407 19.875H15.1704C15.4666 19.875 15.7507 19.7565 15.9602 19.5455C16.1697 19.3345 16.2874 19.0484 16.2874 18.75V8.0625H14.0533Z" fill="#949494"/>
<rect x="6.3623" y="12" width="11.6966" height="5.03098" fill="#E5E5E5"/>
<path d="M16.178 14.8443L16.5359 14.4175C16.7328 14.1827 16.8988 13.9906 16.9047 13.9906C16.9107 13.9906 16.9156 14.1827 16.9156 14.4175V14.8443H16.178Z" fill="#949494"/>
<path d="M13.892 14.3605V13.7273L14.1251 13.74C14.4394 13.757 14.5513 13.8378 14.5513 14.0475C14.5513 14.2604 14.4046 14.3605 14.0926 14.3605H13.892Z" fill="#949494"/>
<path fill-rule="evenodd" clip-rule="evenodd" d="M9.17723 11.6875C8.48823 11.6875 7.92969 12.25 7.92969 12.9439V16.1489C7.92969 16.8429 8.48823 17.4054 9.17724 17.4054H18.1596C18.8486 17.4054 19.4071 16.8429 19.4071 16.1489V12.9439C19.4071 12.25 18.8486 11.6875 18.1596 11.6875H9.17723ZM17.5937 14.8443V13.1084L16.9297 13.1086L15.5027 14.8206V15.442H16.9134L16.9297 15.9685L17.5937 15.9845V15.442H17.9328V14.8443H17.5937ZM10.9795 14.8159C10.9706 14.8159 10.8702 14.4445 10.7564 13.9906L10.5494 13.1653H9.98749C9.56402 13.1653 9.42222 13.174 9.41202 13.2008C9.40459 13.2204 9.40179 13.8511 9.40586 14.6024L9.41321 15.9685L10.1055 15.9845L10.1077 14.9235C10.109 14.3399 10.1176 13.8817 10.127 13.9052C10.1364 13.9287 10.2598 14.4025 10.4013 14.9582L10.6585 15.9685L11.2892 15.9845L11.3148 15.8911C11.3289 15.8398 11.4472 15.3769 11.5777 14.8626L11.8151 13.9274L11.8433 15.9685L12.5357 15.9845V13.1653H11.4139L11.2048 13.9906C11.0898 14.4444 10.9884 14.8158 10.9795 14.8159ZM15.3897 14.0333C15.3897 13.6585 15.2282 13.3824 14.9298 13.247C14.7867 13.182 14.7551 13.1796 13.9131 13.1704C13.2108 13.1627 13.0414 13.1682 13.0298 13.1987C13.0219 13.2194 13.0187 13.8511 13.0228 14.6024L13.0302 15.9685L13.892 15.9842V14.9359L14.3088 14.9234C14.8293 14.9078 14.9824 14.8579 15.1763 14.6408C15.3254 14.4737 15.3897 14.2908 15.3897 14.0333Z" fill="#949494"/>
</g>
<defs>
<clipPath id="clip0_4457_10444">
<rect width="16" height="18" fill="white" transform="translate(4 3)"/>
</clipPath>
</defs>
</svg>
