<svg width="16" height="17" viewBox="0 0 16 17" fill="none" xmlns="http://www.w3.org/2000/svg">
<path d="M15.12 11.6919C14.0267 11.6919 12.9689 11.5142 11.9822 11.1942C11.6711 11.0875 11.3244 11.1675 11.0844 11.4075L9.68889 13.1586C7.17333 11.9586 4.81778 9.69194 3.56444 7.0875L5.29778 5.61194C5.53778 5.36306 5.60889 5.01639 5.51111 4.70528C5.18222 3.71861 5.01333 2.66083 5.01333 1.5675C5.01333 1.0875 4.61333 0.6875 4.13333 0.6875H1.05778C0.577778 0.6875 0 0.900833 0 1.5675C0 9.82528 6.87111 16.6875 15.12 16.6875C15.7511 16.6875 16 16.1275 16 15.6386V12.5719C16 12.0919 15.6 11.6919 15.12 11.6919Z" fill="#323232"/>
</svg>
