<svg width="16" height="18" viewBox="0 0 16 18" fill="none" xmlns="http://www.w3.org/2000/svg">
<path d="M13.7143 5.0625V15.75C13.7143 16.3467 13.4735 16.919 13.0448 17.341C12.6161 17.7629 12.0348 18 11.4286 18H2.28571C1.6795 18 1.09812 17.7629 0.669469 17.341C0.240815 16.919 0 16.3467 0 15.75V2.25C0 1.65326 0.240815 1.08097 0.669469 0.65901C1.09812 0.237053 1.6795 0 2.28571 0L8.57142 0L13.7143 5.0625ZM10.2857 5.0625C9.83105 5.0625 9.39501 4.88471 9.07352 4.56824C8.75203 4.25177 8.57142 3.82255 8.57142 3.375V1.125H6.28571H4.57142H2.28571C1.98261 1.125 1.69192 1.24353 1.47759 1.4545C1.26326 1.66548 1.14286 1.95163 1.14286 2.25V15.75C1.14286 16.0484 1.26326 16.3345 1.47759 16.5455C1.69192 16.7565 1.98261 16.875 2.28571 16.875H11.4286C11.7317 16.875 12.0224 16.7565 12.2367 16.5455C12.451 16.3345 12.5714 16.0484 12.5714 15.75V5.0625H10.2857Z" fill="#949494"/>
<path fill-rule="evenodd" clip-rule="evenodd" d="M5.5342 8.6875C4.82927 8.6875 4.25781 9.25003 4.25781 9.94394V13.1489C4.25781 13.8429 4.82927 14.4054 5.5342 14.4054H14.7242C15.4291 14.4054 16.0005 13.8429 16.0005 13.1489V9.94394C16.0005 9.25003 15.4291 8.6875 14.7242 8.6875H5.5342Z" fill="#949494"/>
<path d="M6.09863 10.0234H7.2652C7.49322 10.0234 7.69138 10.0568 7.85968 10.1236C8.02798 10.1904 8.1576 10.2893 8.24853 10.4202C8.34083 10.5512 8.38697 10.7128 8.38697 10.9052C8.38697 11.0722 8.36051 11.2119 8.30757 11.3241C8.25464 11.4363 8.18067 11.5292 8.08566 11.6027C7.99201 11.6748 7.88275 11.7343 7.75788 11.781L7.52376 11.9113H6.54449L6.54042 11.3682H7.2652C7.35613 11.3682 7.43146 11.3521 7.49118 11.3201C7.5509 11.288 7.59569 11.2426 7.62555 11.1838C7.65677 11.1237 7.67238 11.0522 7.67238 10.9694C7.67238 10.8852 7.65677 10.813 7.62555 10.7529C7.59433 10.6928 7.54819 10.6467 7.48711 10.6146C7.42739 10.5826 7.35342 10.5665 7.2652 10.5665H6.81323V12.9414H6.09863V10.0234ZM7.72124 12.9414L7.06568 11.6508L7.82303 11.6467L8.48673 12.9113V12.9414H7.72124Z" fill="#E5E5E5"/>
<path d="M10.0747 10.6367L9.35199 12.9414H8.58446L9.67366 10.0234H10.1602L10.0747 10.6367ZM10.6733 12.9414L9.9485 10.6367L9.85485 10.0234H10.3475L11.4428 12.9414H10.6733ZM10.6448 11.8532V12.3963H9.12397V11.8532H10.6448Z" fill="#E5E5E5"/>
<path d="M11.6607 10.0234H12.8273C13.0553 10.0234 13.2534 10.0568 13.4217 10.1236C13.59 10.1904 13.7196 10.2893 13.8106 10.4202C13.9029 10.5512 13.949 10.7128 13.949 10.9052C13.949 11.0722 13.9226 11.2119 13.8696 11.3241C13.8167 11.4363 13.7427 11.5292 13.6477 11.6027C13.5541 11.6748 13.4448 11.7343 13.3199 11.781L13.0858 11.9113H12.1065L12.1025 11.3682H12.8273C12.9182 11.3682 12.9935 11.3521 13.0532 11.3201C13.113 11.288 13.1577 11.2426 13.1876 11.1838C13.2188 11.1237 13.2344 11.0522 13.2344 10.9694C13.2344 10.8852 13.2188 10.813 13.1876 10.7529C13.1564 10.6928 13.1102 10.6467 13.0492 10.6146C12.9894 10.5826 12.9155 10.5665 12.8273 10.5665H12.3753V12.9414H11.6607V10.0234ZM13.2833 12.9414L12.6277 11.6508L13.3851 11.6467L14.0488 12.9113V12.9414H13.2833Z" fill="#E5E5E5"/>
</svg>
