<svg width="18" height="19" viewBox="0 0 18 19" fill="none" xmlns="http://www.w3.org/2000/svg">
<path d="M13.0078 11.5703H12.2178L11.9378 11.3003C12.9178 10.1603 13.5078 8.68031 13.5078 7.07031C13.5078 3.48031 10.5978 0.570312 7.00781 0.570312C3.41781 0.570312 0.507812 3.48031 0.507812 7.07031C0.507812 10.6603 3.41781 13.5703 7.00781 13.5703C8.61781 13.5703 10.0978 12.9803 11.2378 12.0003L11.5078 12.2803V13.0703L16.5078 18.0603L17.9978 16.5703L13.0078 11.5703ZM7.00781 11.5703C4.51781 11.5703 2.50781 9.56031 2.50781 7.07031C2.50781 4.58031 4.51781 2.57031 7.00781 2.57031C9.49781 2.57031 11.5078 4.58031 11.5078 7.07031C11.5078 9.56031 9.49781 11.5703 7.00781 11.5703Z" fill="#404040"/>
</svg>
