<svg width="18" height="19" viewBox="0 0 18 19" fill="none" xmlns="http://www.w3.org/2000/svg">
<path d="M12.7539 11.7578H11.9639L11.6839 11.4878C12.6639 10.3478 13.2539 8.86781 13.2539 7.25781C13.2539 3.66781 10.3439 0.757812 6.75391 0.757812C3.16391 0.757812 0.253906 3.66781 0.253906 7.25781C0.253906 10.8478 3.16391 13.7578 6.75391 13.7578C8.36391 13.7578 9.84391 13.1678 10.9839 12.1878L11.2539 12.4678V13.2578L16.2539 18.2478L17.7439 16.7578L12.7539 11.7578ZM6.75391 11.7578C4.26391 11.7578 2.25391 9.74781 2.25391 7.25781C2.25391 4.76781 4.26391 2.75781 6.75391 2.75781C9.24391 2.75781 11.2539 4.76781 11.2539 7.25781C11.2539 9.74781 9.24391 11.7578 6.75391 11.7578Z" fill="#1D3070"/>
</svg>
