<svg width="16" height="17" viewBox="0 0 16 17" fill="none" xmlns="http://www.w3.org/2000/svg">
<path fill-rule="evenodd" clip-rule="evenodd" d="M8 0.560547C12.4151 0.560547 16 4.14063 16 8.56055C16 12.9757 12.4199 16.5605 8 16.5605C3.58488 16.5605 0 12.9805 0 8.56055C0 4.14543 3.58008 0.560547 8 0.560547ZM12.3191 5.87788C12.0024 6.02185 11.6617 6.11304 11.3017 6.15623C11.6665 5.93547 11.9496 5.58994 12.0792 5.17722C11.7385 5.37878 11.3545 5.52755 10.9562 5.60914C10.6299 5.26361 10.174 5.05245 9.66047 5.05245C8.68146 5.05245 7.88962 5.84429 7.88962 6.82329C7.88962 6.96247 7.90402 7.09684 7.93281 7.22641C6.45951 7.14963 5.15417 6.44897 4.28074 5.37398C4.12238 5.64273 4.04079 5.94987 4.04079 6.26661C4.04079 6.88088 4.35273 7.42317 4.82783 7.73991C4.53509 7.73031 4.26635 7.64873 4.02639 7.51916V7.54315C4.02639 8.40218 4.63587 9.11724 5.44691 9.2804C5.29814 9.3188 5.13977 9.34279 4.9814 9.34279C4.86623 9.34279 4.75585 9.33319 4.64547 9.3092C4.87103 10.0147 5.52369 10.5234 6.30114 10.5426C5.69166 11.0177 4.93341 11.3008 4.09838 11.3008C3.95441 11.3008 3.81524 11.2912 3.67606 11.2768C4.46311 11.7807 5.39412 12.0734 6.39232 12.0734C9.65087 12.0734 11.4361 9.37158 11.4361 7.02965C11.4361 6.95287 11.4361 6.87608 11.4313 6.7993C11.7768 6.54975 12.0792 6.23781 12.3143 5.88268L12.3191 5.87788Z" fill="#404040"/>
</svg>
