<svg width="30" height="29" viewBox="0 0 30 29" fill="none" xmlns="http://www.w3.org/2000/svg">
<path fill-rule="evenodd" clip-rule="evenodd" d="M15.1569 28.9077C23.0441 28.9077 29.4379 22.5139 29.4379 14.6267C29.4379 6.73953 23.0441 0.345703 15.1569 0.345703C7.26977 0.345703 0.875977 6.73953 0.875977 14.6267C0.875977 22.5139 7.26977 28.9077 15.1569 28.9077ZM23.7868 12.3755V11.8501C24.4448 11.3247 25.1012 10.6691 25.6303 9.87871C24.842 10.2739 24.184 10.4041 23.3958 10.5358C24.184 10.012 24.842 9.35483 25.1042 8.43576C24.4463 8.82943 23.658 9.2231 22.7378 9.35484C22.0799 8.5675 21.0294 8.17383 19.9773 8.17383C17.8732 8.17383 16.1647 9.88177 16.1647 11.9818C16.1647 12.1987 16.2047 12.376 16.2406 12.5353C16.27 12.6653 16.2966 12.7832 16.2966 12.9009C13.1419 12.7707 10.3814 11.1945 8.54102 8.9627C8.14688 9.4881 8.01499 10.1437 8.01499 10.8008C8.01499 12.1136 8.67138 13.1644 9.72345 14.0835C9.06706 13.9517 8.54102 13.82 8.01499 13.5581C8.01499 15.3962 9.32931 16.8407 11.0378 17.2343C10.6436 17.3661 10.3798 17.3661 9.98572 17.3661H9.9857C9.93097 17.3661 9.85354 17.3434 9.76294 17.3169C9.63517 17.2794 9.48121 17.2343 9.32777 17.2343C9.85381 18.6788 11.1681 19.8598 12.8766 19.8598C11.5623 20.7789 9.85227 21.436 8.14381 21.436H7.22363C8.9321 22.4853 10.9043 23.1424 13.007 23.1424C19.9742 23.1424 23.7868 17.3645 23.7868 12.3755Z" fill="white"/>
</svg>
