<svg width="16" height="17" viewBox="0 0 16 17" fill="none" xmlns="http://www.w3.org/2000/svg">
<path fill-rule="evenodd" clip-rule="evenodd" d="M7.40646 0.577484C6.12379 0.685904 4.94684 1.06331 3.8655 1.71295C2.11306 2.76573 0.789805 4.53211 0.27509 6.50574C-0.373332 8.99196 0.166216 11.5599 1.75869 13.5668C2.02558 13.9031 2.65728 14.5361 2.9948 14.8054C3.48041 15.1929 4.13955 15.6013 4.66464 15.8402C5.73684 16.328 6.81479 16.5605 8.00431 16.5605C9.05381 16.5605 9.96981 16.39 10.9146 16.0186C13.3236 15.0718 15.1444 13.0026 15.7589 10.5134C15.9322 9.81171 15.9933 9.30102 15.993 8.55726C15.9925 6.91609 15.5342 5.42128 14.6144 4.06072C13.4304 2.30946 11.5265 1.06658 9.44753 0.687741C8.8649 0.581563 7.94561 0.531897 7.40646 0.577484ZM6.93085 3.79927C8.19081 3.94309 9.3216 4.55745 9.99016 5.46135C10.2814 5.85512 10.4395 6.20593 10.5548 6.71447L10.5696 6.78007H10.3178C8.47347 6.78007 6.89277 7.86549 6.50823 9.39599C6.46377 9.57299 6.45513 9.67392 6.45451 10.0243C6.4538 10.4204 6.47159 10.5728 6.55139 10.8533L6.56666 10.907H6.23114C5.83066 10.907 5.43799 10.8592 5.11547 10.7713C4.73072 10.6664 4.74422 10.663 4.13714 11.0105C3.37624 11.4461 3.35515 11.4372 3.53058 10.7556C3.58254 10.5538 3.6379 10.3603 3.65365 10.3258C3.67562 10.2776 3.67581 10.2415 3.65448 10.1703C3.6322 10.0959 3.59024 10.0504 3.44196 9.93943C3.02607 9.62834 2.62801 9.15079 2.40909 8.70038C2.18128 8.23168 2.09147 7.84228 2.09278 7.32873C2.09505 6.43308 2.44361 5.6613 3.15496 4.97679C3.80577 4.35053 4.73608 3.92723 5.73811 3.80137C5.97553 3.77155 6.67722 3.77031 6.93085 3.79927ZM4.67032 5.72025C4.47146 5.82375 4.34613 6.05889 4.37552 6.27332C4.42163 6.60965 4.73709 6.83327 5.05717 6.75648C5.4685 6.65779 5.62453 6.16941 5.34796 5.84632C5.18315 5.65377 4.89944 5.60097 4.67032 5.72025ZM7.52075 5.71932C7.28581 5.83819 7.16584 6.10858 7.23829 6.35608C7.31424 6.61562 7.51243 6.76638 7.77769 6.76638C8.3442 6.76638 8.54043 6.07566 8.06822 5.74377C7.9847 5.68506 7.93783 5.67077 7.80649 5.664C7.67051 5.65696 7.6276 5.66526 7.52075 5.71932ZM11.0697 7.10357C11.6032 7.19636 12.1719 7.42279 12.6018 7.71358C12.8723 7.89655 13.2864 8.30349 13.4481 8.54533C13.7729 9.03106 13.9084 9.47087 13.9084 10.0399C13.9084 10.8672 13.5553 11.5709 12.8436 12.1615C12.5331 12.4191 12.5333 12.4184 12.6555 12.8477C12.7046 13.0202 12.7499 13.189 12.7562 13.223C12.768 13.2868 12.7148 13.364 12.6589 13.364C12.6427 13.364 12.453 13.2603 12.2372 13.1335C12.0215 13.0068 11.7992 12.8828 11.7434 12.858C11.6431 12.8135 11.6396 12.8136 11.4643 12.8627C11.1562 12.9492 10.9024 12.9854 10.5078 12.9992C9.77157 13.0249 9.1799 12.9044 8.55297 12.6011C8.18671 12.4239 7.89608 12.2177 7.6109 11.9327C6.21744 10.5404 6.63283 8.43536 8.48802 7.48775C8.91657 7.26886 9.40683 7.1216 9.88884 7.06697C10.1563 7.0367 10.7997 7.05662 11.0697 7.10357ZM9.042 8.59616C8.68384 8.70241 8.57308 9.1323 8.83608 9.39532C9.06903 9.62824 9.44681 9.56946 9.59793 9.27681C9.68675 9.10482 9.64109 8.82977 9.50373 8.70923C9.38062 8.60115 9.18591 8.55349 9.042 8.59616ZM11.4036 8.59616C11.0455 8.70241 10.9347 9.1323 11.1977 9.39532C11.5033 9.70093 12.0034 9.49172 12.0034 9.05821C12.0034 8.92548 11.9458 8.7798 11.8654 8.70923C11.7422 8.60115 11.5475 8.55349 11.4036 8.59616Z" fill="#404040"/>
</svg>
