<svg width="16" height="17" viewBox="0 0 16 17" fill="none" xmlns="http://www.w3.org/2000/svg">
<path fill-rule="evenodd" clip-rule="evenodd" d="M8 0.560547C12.4151 0.560547 16 4.14063 16 8.56055C16 12.9757 12.4199 16.5605 8 16.5605C3.58488 16.5605 0 12.9805 0 8.56055C0 4.14543 3.58008 0.560547 8 0.560547ZM12.3815 6.7705C12.3815 6.7705 12.2951 6.15143 12.0264 5.88268C11.6857 5.52755 11.3017 5.52275 11.129 5.50356C9.87642 5.41238 8 5.41238 8 5.41238H7.9952C7.9952 5.41238 6.11398 5.41238 4.86623 5.50356C4.69346 5.52275 4.30954 5.52755 3.96881 5.88268C3.70006 6.15143 3.61368 6.7705 3.61368 6.7705C3.61368 6.7705 3.5225 7.49516 3.5225 8.21981V8.89648C3.5225 9.62113 3.61368 10.3458 3.61368 10.3458C3.61368 10.3458 3.70006 10.9649 3.96881 11.2336C4.30954 11.5887 4.75585 11.5791 4.95741 11.6175C5.67247 11.6847 8 11.7087 8 11.7087C8 11.7087 9.88122 11.7039 11.1338 11.6175C11.3065 11.5983 11.6905 11.5935 12.0312 11.2384C12.2999 10.9697 12.3863 10.3506 12.3863 10.3506C12.3863 10.3506 12.4775 9.62593 12.4775 8.90128V8.22461C12.4775 7.49996 12.3863 6.7753 12.3863 6.7753L12.3815 6.7705ZM7.06899 9.72191V7.20722L9.4877 8.46936L7.06899 9.72191Z" fill="#404040"/>
</svg>
