<svg xmlns="http://www.w3.org/2000/svg" width="1440" height="969" viewBox="0 0 1440 969"><g transform="translate(-0.159 -1083)"><g transform="translate(0.159 1083)"><rect width="1440" height="969" fill="none"/></g><g transform="translate(247.468 1325.167)"><g transform="translate(0)" opacity="0.7"><path d="M378.435,313.97a.376.376,0,0,0,.351-.509l-2.393-6.272a.376.376,0,0,0-.327-.24L358.03,305.8a.346.346,0,0,0-.236.065l-3.784,2.609a.375.375,0,0,0,.146.678l12.6,2.3,11.6,2.509A.364.364,0,0,0,378.435,313.97ZM366.9,310.717l-11.72-2.137,2.93-2.021,17.665,1.122,2.061,5.4Z" transform="translate(-25.961 0)" fill="#7f1084"/><path d="M201.5,60.505l14,3.762a.375.375,0,0,0,.433-.531l-4.434-8.8,2.864-3.32a.375.375,0,0,0-.106-.575l-6.054-3.26a.374.374,0,0,0-.439.062l-6.428,6.269a.376.376,0,0,0-.113.269v5.769a.375.375,0,0,0,.277.362Zm8.677-5.426-8.2,4.568v-5l8.2.434Zm4.709,8.246-12.471-3.351,8.422-4.69Zm-6.8-14.759,5.4,2.907-2.7,3.136-8.435-.446Z" transform="translate(-14.613 0)" fill="#7f1084"/><path d="M206.046,44.457l10.216,2.511a.4.4,0,0,0,.09.011.379.379,0,0,0,.188-.051l27.241-15.8a.372.372,0,0,0,.142-.146l3.784-7.021a.375.375,0,0,0-.41-.544l-20.621,4.512a.382.382,0,0,0-.148.068l-20.62,15.8a.375.375,0,0,0,.139.662Zm20.872-15.815.2-.043,15.538,2.316-25.5,14.793,9.642-16.968.129-.1Zm16.406,1.868L228.487,28.3l18.172-3.976-3.335,6.188ZM225.77,29.52,216.291,46.2l-9.306-2.287L225.77,29.52Z" transform="translate(-15.359 0)" fill="#7f1084"/><path d="M195.942,73.26h3.027a.377.377,0,0,0,.292-.14l1.892-2.353a.376.376,0,0,0-.114-.565l-3.783-2.039a.369.369,0,0,0-.328-.014.377.377,0,0,0-.213.25l-1.136,4.392a.375.375,0,0,0,.363.469Zm1.379-4.21,2.966,1.6-1.5,1.861h-2.363Z" transform="translate(0 0)" fill="#7f1084"/><path d="M455.585,40.071l-4.54-1.058a.36.36,0,0,0-.276.043l-4.54,2.7a.374.374,0,0,0,.172.7l9.08.471h.02a.376.376,0,0,0,.375-.375V40.436a.376.376,0,0,0-.29-.365Zm-.46,2.084-7.449-.387,3.346-1.99,4.1.956Z" transform="translate(-32.234 0)" fill="#7f1084"/><path d="M40.2,130.547l3.532,1.045a.363.363,0,0,0,.106.016.378.378,0,0,0,.2-.057l2.522-1.568a.375.375,0,0,0,0-.637l-2.522-1.569a.372.372,0,0,0-.389,0l-3.532,2.093a.375.375,0,0,0,.085.682Zm3.633-2.014,1.817,1.131-1.867,1.161-2.546-.753,2.6-1.539Z" transform="translate(0 0)" fill="#7f1084"/><path d="M43.475,132.83a.373.373,0,0,0,.081.314l3.705,4.407.37,5.211a.374.374,0,0,0,.323.345l3.562.492,1.583,4.218-1.3.872H49.77a.375.375,0,0,0-.374.342l-.236,2.694-1.613,1.05a.377.377,0,0,0-.17.294l-.126,2.3a.375.375,0,0,0,.375.4H50.64l-4.417,4.485a.375.375,0,0,0,.134.613l3.027,1.15a.37.37,0,0,0,.133.024.383.383,0,0,0,.207-.062l5.474-3.612,10.252-1.139a.375.375,0,0,0,.334-.373v-1.868l2.075-2.936a.375.375,0,0,0,.051-.33l-.631-1.986a.374.374,0,0,0-.4-.259l-3.082.38-1.434-5.023a.373.373,0,0,0-.143-.2l-5.426-3.887-.7-3.788,2.951-4.792a.375.375,0,0,0-.147-.529l-3.021-1.562a.382.382,0,0,0-.228-.038l-3.483.525,1.737-3.874a.375.375,0,0,0-.342-.528H47.248a.375.375,0,0,0-.375.375V130.9l-3.2,1.668a.376.376,0,0,0-.194.26Zm8.664,10.3a.374.374,0,0,0-.3-.239l-3.481-.481L48,137.376a.374.374,0,0,0-.087-.215l-.055-.066-.319-5.29,8.52,9.1.023.124c.006.035.039.055.055.086l-2.262,6.638-1.736-4.625Zm-4.117,11.889.094-1.715,1.606-1.046a.377.377,0,0,0,.169-.281l.222-2.534h1.8a.38.38,0,0,0,.209-.063l1.554-1.043L51.4,155.015H48.022Zm18.637-4.759.48,1.512L65.1,154.649a.376.376,0,0,0-.069.217v1.651l-10.008,1.112a.385.385,0,0,0-.165.06l-5.389,3.556-2.31-.878,4.642-4.714a.363.363,0,0,0,.072-.136l11.512-4.923a.372.372,0,0,0,.182.044Zm-4.983-5.095,1.43,5.009L51.953,154.94l4.586-13.457,5.136,3.679ZM47.623,126.9h5.354L51.2,130.876a.374.374,0,0,0,.043.38.367.367,0,0,0,.354.145l4.042-.609,2.554,1.321-2.815,4.571a.372.372,0,0,0-.049.265l.565,3.042-8.274-8.834c0-.009.007-.017.007-.027V126.9Zm-.593,4.761.288,4.788-2.888-3.435,2.6-1.353Z" transform="translate(0 0)" fill="#7f1084"/><path d="M371.623,247.492a.375.375,0,0,0-.2-.31l-3.027-1.568a.374.374,0,0,0-.259-.032l-2.647.626a.405.405,0,0,0-.089.033l-2.775,1.464a.376.376,0,0,0-.133.547l1.514,2.17a.376.376,0,0,0,.308.16.368.368,0,0,0,.057,0l3.909-.6a.377.377,0,0,0,.156-.062l3.027-2.092A.374.374,0,0,0,371.623,247.492Zm-3.543,1.758-3.594.551-1.137-1.63,2.357-1.244,2.466-.583,2.35,1.218Z" transform="translate(-26.174 0)" fill="#7f1084"/><path d="M364.229,288.932l1.731,10.432a.374.374,0,0,0,.313.309l18.6,2.9a.382.382,0,0,0,.058,0,.376.376,0,0,0,.371-.433l-.82-5.288,6.749-6.064a.378.378,0,0,0,.1-.411l-2.123-5.661,2.118-5.117a.375.375,0,0,0-.2-.488l-5.3-2.274a.369.369,0,0,0-.329.017l-21.08,11.686A.377.377,0,0,0,364.229,288.932Zm.825.39,18.079,7.277-16.381,2.389-.1-.015Zm3.37,9.927,15.323-2.235.734,4.739Zm22.113-8.843-6.637,5.963-18.391-7.4,23.007-3.95ZM385.7,277.6l4.79,2.056-2.011,4.859-22.1,3.793Z" transform="translate(-26.78 0)" fill="#7f1084"/><path d="M503.943,311.565a.375.375,0,0,0,.109-.266l0-2.092a.375.375,0,0,0-.245-.351l-3.4-1.254a.375.375,0,0,0-.5.421l.63,3.346a.374.374,0,0,0,.368.306h2.775A.376.376,0,0,0,503.943,311.565Zm-2.73-.64-.449-2.39,2.535.935,0,1.455Z" transform="translate(-35.923 0)" fill="#7f1084"/><path d="M464.05,31.5l7.378,3.406a.383.383,0,0,0,.157.034.373.373,0,0,0,.158-.035l3.021-1.41a.374.374,0,0,0,.217-.34V30.57a.376.376,0,0,0-.333-.373l-10.4-1.174a.376.376,0,0,0-.417.373v1.762a.375.375,0,0,0,.218.341Zm.532-1.683,9.649,1.089v2.01l-2.647,1.236-7-3.233v-1.1Z" transform="translate(-33.563 0)" fill="#7f1084"/><path d="M436.229,31.375l7.284,3.524a.376.376,0,0,0,.163.037.327.327,0,0,0,.069-.007l11.823-2.23a.375.375,0,0,0,.165-.661l-3.707-2.973h.893l3.5,2.514a.373.373,0,0,0,.209.07l4.352.118a.444.444,0,0,0,.271-.106.374.374,0,0,0,.113-.269V28.221a.375.375,0,0,0-.266-.358l-10.026-3.054a.357.357,0,0,0-.319.048l-1.912,1.294-5.3-2.268a.37.37,0,0,0-.334.02L438.1,26.838a.375.375,0,0,0-.188.325v2.491L436.2,30.719a.374.374,0,0,0,.034.656Zm2.253-1.193a.374.374,0,0,0,.178-.318V27.38l4.757-2.734,5.314,2.275a.37.37,0,0,0,.357-.034l1.933-1.309,9.59,2.92v2.509l-3.852-.1-3.5-2.517a.374.374,0,0,0-.219-.07H450.96a.375.375,0,0,0-.234.668l3.9,3.13-10.9,2.057L437.17,31Z" transform="translate(-32.001 0)" fill="#7f1084"/><path d="M553.545,59.111a.376.376,0,0,0,.326.189h5.678a.375.375,0,0,0,.375-.375V56.573a.376.376,0,0,0-.343-.374l-7.378-.628a.374.374,0,0,0-.349.172.378.378,0,0,0-.01.388l1.7,2.98Zm5.629-2.193V58.55h-5.085l-1.238-2.171Z" transform="translate(-39.809 0)" fill="#7f1084"/><path d="M34.171,155.489a.378.378,0,0,0,.15.062l4.288.732a.456.456,0,0,0,.063,0,.373.373,0,0,0,.28-.126l2.075-2.328,4.314-1.327a.375.375,0,0,0,.265-.358v-9.935a.375.375,0,0,0-.126-.28.371.371,0,0,0-.294-.092l-6.937.837a.375.375,0,0,0-.33.372v1.508H34a.375.375,0,0,0-.375.375V148.7a.375.375,0,0,0,.218.341l1.977.911-.614,2.122-3.229,1.189a.375.375,0,0,0-.083.66l2.271,1.568Zm4.65-9.65,5.852,6.088-3.724,1.147-2.128-7.235Zm-.153-2.456,6.187-.746v8.758l-6.191-6.441c0-.007,0-.013,0-.021v-1.551Zm-3.019,9.326a.374.374,0,0,0,.23-.247l.756-2.614a.376.376,0,0,0-.2-.445l-2.052-.945v-3.148h3.764L40.5,153.3l-1.965,2.206-4-.684-1.608-1.111,2.729-1Z" transform="translate(0 0)" fill="#7f1084"/><path d="M523.224,327.683h0l2.271-.006a.375.375,0,0,0,.271-.633l-2.271-2.4a.376.376,0,0,0-.442-.076l-1.64.836a.375.375,0,0,0-.09.6l1.64,1.569A.375.375,0,0,0,523.224,327.683Zm-.079-2.318,1.48,1.564-1.251,0-1.149-1.1Z" transform="translate(-37.473 0)" fill="#7f1084"/><path d="M521.584,344.094a.375.375,0,0,0,.211-.064l1.387-.94a.375.375,0,0,0,0-.62l-7.062-4.811a.367.367,0,0,0-.386-.021.374.374,0,0,0-.2.331v2.875a.373.373,0,0,0,.205.334l5.675,2.877A.387.387,0,0,0,521.584,344.094Zm-5.3-5.417,6.02,4.1-.747.507-5.272-2.672Z" transform="translate(-37.181 0)" fill="#7f1084"/><path d="M286.7,271.173a.376.376,0,0,0-.616-.056l-2.775,3.346a.377.377,0,0,0-.074.332l1.387,5.438a.377.377,0,0,0,.224.256.385.385,0,0,0,.14.026.375.375,0,0,0,.2-.058l4.667-2.928a.375.375,0,0,0,.128-.5Zm-1.479,8.376L284.01,274.8l2.3-2.778,2.837,5.067Z" transform="translate(-20.406 0)" fill="#7f1084"/><path d="M514.12,315.8l-4.477-1.307a.378.378,0,0,0-.449.211l-.568,1.307a.373.373,0,0,0,.092.427l2.018,1.83a.375.375,0,0,0,.252.1.379.379,0,0,0,.194-.054l3.027-1.83a.376.376,0,0,0-.089-.682Zm-3.088,1.725-1.611-1.461.329-.758,3.34.976Z" transform="translate(-36.607 0)" fill="#7f1084"/><path d="M356.139,299.872l-5.577-2.415V293.1a.375.375,0,0,0-.193-.328L326.91,279.807a.375.375,0,0,0-.557.328V283.9a.376.376,0,0,0,.153.3l10.8,7.917,6.527,8.324a.4.4,0,0,0,.093.085l9.332,5.965a.383.383,0,0,0,.2.059.394.394,0,0,0,.111-.017.377.377,0,0,0,.234-.212l2.523-5.965A.375.375,0,0,0,356.139,299.872ZM345,299.586l4.815-5.654v3.66ZM327.1,283.712v-2.941l21.589,11.935-10.813-1.076-.009-.011a.39.39,0,0,0-.073-.071Zm11.2,8.463,11.38,1.132-5.463,6.416Zm14.987,13.45-8.482-5.421,5.219-2.163.006.005,5.462,2.365Z" transform="translate(-24.066 0)" fill="#7f1084"/><path d="M506.639,312.246a.374.374,0,0,0-.316-.174l-3.406,0a.375.375,0,0,0-.375.375v1.5a.375.375,0,0,0,.336.373l4.667.483.039,0a.375.375,0,0,0,.316-.576Zm-3.348,1.367v-.787l2.825,0,.735,1.159Z" transform="translate(-36.158 0)" fill="#7f1084"/><path d="M550.961,384.04,546.5,382.5,538.1,374.6a.372.372,0,0,0-.147-.085l-4.792-1.464a.375.375,0,0,0-.416.574l7.741,11L536.8,387.55a.375.375,0,0,0-.1.469l3.972,7.529a.375.375,0,0,0,.286.2l.046,0a.375.375,0,0,0,.279-.125l9.838-10.979a.375.375,0,0,0-.157-.6Zm-16.97-9.948,3.663,1.119,8.041,7.562-4.478,1.59Zm3.516,13.854L541.233,385a.349.349,0,0,0,.083-.144l4.538-1.611-4.814,11.4Zm4.463,5.786,4.425-10.476,3.789,1.309Z" transform="translate(-38.83 0)" fill="#7f1084"/><path d="M203.25,321.766l-2.838-.94a.382.382,0,0,0-.349.061l-9.642,7.523L184,332.953a.376.376,0,0,0-.123.465l2.734,5.9-3.812,4.365a.375.375,0,0,0-.077.354l2.081,7.059a.373.373,0,0,0,.224.243l5.675,2.2a.384.384,0,0,0,.136.025.371.371,0,0,0,.164-.038l5.485-2.666a.37.37,0,0,0,.192-.222l6.812-21.019a.356.356,0,0,0,.019-.115v-7.377A.376.376,0,0,0,203.25,321.766Zm-12.388,7.25.014-.01,9.49-7.405,2.391.792v6.921l-17.137,3.41Zm-7.365,15,3.836-4.394a.376.376,0,0,0,.058-.405l-2.69-5.8,17.784-3.539-17.12,20.471Zm12.516,6.233-5.194,2.524-5.159-2,16.626-19.88Z" transform="translate(0 0)" fill="#7f1084"/><path d="M255.287,416.65l-5.045-.94a.369.369,0,0,0-.341.11l-1.387,1.464a.377.377,0,0,0-.084.376l1.387,4.184a.376.376,0,0,0,.356.257.371.371,0,0,0,.164-.038l4.288-2.093a.372.372,0,0,0,.2-.232l.757-2.613a.376.376,0,0,0-.292-.474Zm-1.139,2.719-3.754,1.831-1.181-3.563,1.092-1.152,4.438.828Z" transform="translate(-17.905 0)" fill="#7f1084"/><path d="M533.24,391.91a.374.374,0,0,0-.5.123l-6.018,9.356-8.775,6.651a.374.374,0,0,0,.016.608l7.063,4.811a.373.373,0,0,0,.443-.016l5.55-4.393a.373.373,0,0,0,.135-.218l1.2-5.766h3.983a.376.376,0,0,0,.358-.264l2.27-7.319a.376.376,0,0,0-.174-.437Zm-6.012,10.037a.361.361,0,0,0,.089-.1l5.369-8.347-.858,8.891a.364.364,0,0,0-.114.164l-11.435,4.654Zm3.218,6.6-5.227,4.138-6.379-4.346,12.726-5.179Zm5.612-6.229h-3.72l.92-9.537,4.9,2.77Z" transform="translate(-37.845 0)" fill="#7f1084"/><path d="M392.228,256.74l3.795,4.045-1.115,2.278a.376.376,0,0,0,.1.458l2.554,2.039a.376.376,0,0,0,.234.082.391.391,0,0,0,.082-.009.379.379,0,0,0,.255-.2l1.67-3.4,2.469,2.252a.375.375,0,0,0,.35.085l3.217-.862a.375.375,0,0,0,.272-.428l-.567-3.215a.376.376,0,0,0-.283-.3c-1.8-.422-3.786-.949-4.4-1.2a64.5,64.5,0,0,0,.057-8.172.375.375,0,0,0-.375-.366h-4.068a.372.372,0,0,0-.316.175l-3.972,6.274A.374.374,0,0,0,392.228,256.74Zm4.451-6.156h3.5c.075,3.467.082,7.233-.052,7.749a.428.428,0,0,0-.054.3c.059.248.118.5,4.78,1.607l.465,2.633-2.687.721-2.686-2.45a.368.368,0,0,0-.322-.091.376.376,0,0,0-.268.2l-1.685,3.426-1.954-1.561,1.1-2.24a.376.376,0,0,0-.063-.422l-3.773-4.022Z" transform="translate(-28.455 0)" fill="#7f1084"/><path d="M404.492,266.712a.375.375,0,0,0-.5-.46l-4.446,1.8a.376.376,0,0,0-.139.6l3.312,3.688a.377.377,0,0,0,.456.08l4.257-2.274a.375.375,0,0,0-.072-.691l-3.416-.993Zm1.776,3.2-3.186,1.7-2.759-3.07,3.215-1.3-.424,1.354a.376.376,0,0,0,.253.473Z" transform="translate(-28.813 0)" fill="#7f1084"/><path d="M410.789,263.434l-3.264,1.492a.375.375,0,0,0-.219.341V268.4a.375.375,0,0,0,.375.375h1.939a.376.376,0,0,0,.36-.271l1.324-4.628a.375.375,0,0,0-.116-.388A.371.371,0,0,0,410.789,263.434Zm-1.451,4.594h-1.281v-2.52l2.3-1.054Z" transform="translate(-29.265 0)" fill="#7f1084"/><path d="M413.869,276.716v-3.686a.374.374,0,0,0-.147-.3l-3.5-2.667a.374.374,0,0,0-.405-.032l-8.136,4.392a.374.374,0,0,0-.185.427l.479,1.8a.373.373,0,0,0,.176.229.38.38,0,0,0,.286.036l2.951-.817.164,2.908a.374.374,0,0,0,.316.349l4.541.706a.293.293,0,0,0,.058,0,.375.375,0,0,0,.365-.29l.427-1.842,2.364-.872A.374.374,0,0,0,413.869,276.716Zm-.75-.262-2.309.852a.373.373,0,0,0-.235.267l-.394,1.7-3.9-.606-.173-3.069a.375.375,0,0,0-.155-.283.382.382,0,0,0-.319-.057l-3.033.84-.307-1.152,7.662-4.136,3.16,2.407Z" transform="translate(-29.087 0)" fill="#7f1084"/><path d="M479.953,306.548a.452.452,0,0,0,.111-.011c.395-.108,3.471-2.153,4.775-3.027a.375.375,0,0,0,.131-.47l-1.387-2.982a.376.376,0,0,0-.214-.2.365.365,0,0,0-.29.017l-9.459,4.6a.375.375,0,0,0,.072.7A49.371,49.371,0,0,0,479.953,306.548Zm3.112-5.828,1.09,2.346c-1.872,1.25-3.9,2.567-4.274,2.74-.439-.015-2.911-.588-5-1.1Z" transform="translate(-34.271 0)" fill="#7f1084"/><path d="M404.98,316.534a.37.37,0,0,0,.17-.041l7.378-3.764a.374.374,0,0,0-.091-.7l-3.025-.652a.357.357,0,0,0-.226.021l-4.353,1.854a.374.374,0,0,0-.229.345v2.563a.375.375,0,0,0,.375.375Zm.375-2.689,4.015-1.71,1.88.405-5.895,3.007Z" transform="translate(-29.19 0)" fill="#7f1084"/><path d="M430.336,214.377a.371.371,0,0,0,.217-.069l2.128-1.51,2.486-.254a.377.377,0,0,0,.257-.142.372.372,0,0,0,.076-.282l-.315-2.3a.375.375,0,0,0-.371-.324h-1.262a.371.371,0,0,0-.152.032l-5.044,2.248a.375.375,0,0,0-.116.6l1.828,1.882A.372.372,0,0,0,430.336,214.377Zm3.3-4.131h.854l.219,1.591-2.2.225a.371.371,0,0,0-.179.067l-1.946,1.381-1.23-1.267Z" transform="translate(-30.864 0)" fill="#7f1084"/><path d="M461.134,299.337l-20.306-4.82a.376.376,0,0,0-.377.127l-3.722,4.531-1.42-2.1v-2.708a.375.375,0,0,0-.281-.363l-9.711-2.51a.38.38,0,0,0-.438.215l-.631,1.464a.376.376,0,0,0,.126.453l5.106,3.657-1.437.953a.375.375,0,0,0-.071.564l2.46,2.72a.377.377,0,0,0,.371.111l2.327-.595,13.717,6.546-2.626,3.5a.375.375,0,0,0,.3.6h5.545l2.922,2.424a.374.374,0,0,0,.239.086h7.063a.375.375,0,0,0,.341-.531l-1.156-2.526,6.206-.281,3.918,4.264a.379.379,0,0,0,.2.113l8.45,1.777a.413.413,0,0,0,.077.008.375.375,0,0,0,.375-.375v-2.3a.375.375,0,0,0-.133-.286l-17.278-14.639A.379.379,0,0,0,461.134,299.337Zm-13.6,7.742-.021-.01L441.3,295.4l18.9,4.486Zm-14.461-6.8-2.24.572-2.016-2.229,1.528-1.013a.375.375,0,0,0,.012-.617l-5.3-3.8.384-.892,9.119,2.356v2.533a.375.375,0,0,0,.064.21l1.766,2.613a.377.377,0,0,0,.293.165.414.414,0,0,0,.308-.137l3.77-4.59,6,11.257L433.33,300.3A.375.375,0,0,0,433.076,300.276Zm26.63,13.167h-6.345l-2.922-2.424a.374.374,0,0,0-.239-.086h-4.93l2.45-3.269a.374.374,0,0,0,.067-.152l12.909-7.334L458.7,310.47a.368.368,0,0,0-.143.472Zm-.478-3.048,1.912-9.875,4.27,9.6Zm18.722,5.784-7.88-1.657-3.955-4.3a.375.375,0,0,0-.155-.1l-4.118-9.253,16.108,13.647Z" transform="translate(-32.077 0)" fill="#7f1084"/><path d="M470.627,393.744h-9.838a.375.375,0,0,0-.278.627l6.811,7.529a.38.38,0,0,0,.272.123h.006a.374.374,0,0,0,.27-.114l3.027-3.138a.378.378,0,0,0,.105-.261v-4.392A.375.375,0,0,0,470.627,393.744Zm-.375,4.615-2.644,2.74-5.975-6.605h8.618Z" transform="translate(-33.297 0)" fill="#7f1084"/><path d="M461.91,165.845l1.324-4.385a.376.376,0,0,0-.011-.247l-6.811-17.1a.376.376,0,0,0-.663-.066l-3.783,5.8a.379.379,0,0,0-.06.235l1.892,23.058a.375.375,0,0,0,.374.345H460.6a.375.375,0,0,0,.349-.513l-2.806-7.128,3.374.268A.379.379,0,0,0,461.91,165.845Zm-1.856,6.889h-5.535l-1.661-20.239,4.4,12.76a.368.368,0,0,0-.025.306Zm-2.339-7.677-5.022-14.576-.027-.332,3.318-5.087,6.5,16.307-1.2,3.971Z" transform="translate(-32.706 0)" fill="#7f1084"/><path d="M449.636,185.821v2.771a.375.375,0,0,0,.375.375h2.649a.375.375,0,0,0,.37-.435l-.286-1.771,4.733,1.354a.373.373,0,0,0,.326-.059l6.369-4.705a.375.375,0,0,0,.139-.2l.441-1.568a.376.376,0,0,0-.039-.293.372.372,0,0,0-.239-.174l-6.247-1.422-1.187-2.7a.376.376,0,0,0-.244-.211.363.363,0,0,0-.317.057l-1.387.992a.353.353,0,0,0-.091.092l-5.3,7.687A.376.376,0,0,0,449.636,185.821Zm14.288-4.062-.3,1.064-5.763,4.258.324-6.628Zm-13.538,4.179,5.2-7.537.958-.685,1.076,2.452a.367.367,0,0,0,.077.1l-.343,7.028-4.966-1.42a.375.375,0,0,0-.474.42l.31,1.918h-1.834Z" transform="translate(-32.665 0)" fill="#7f1084"/><path d="M386.371,272.354a.375.375,0,0,0,.3.263l2.459.392a.4.4,0,0,0,.059,0,.369.369,0,0,0,.213-.066l5.108-3.528a.375.375,0,0,0,.073-.552l-1.8-2.118a.376.376,0,0,0-.263-.131.353.353,0,0,0-.276.1l-5.768,5.255A.376.376,0,0,0,386.371,272.354Zm6.093-4.823,1.28,1.506-4.645,3.208L387.56,272Z" transform="translate(-27.878 0)" fill="#7f1084"/><path d="M423.108,210.428l-2.4,1.172a.376.376,0,0,0-.2.4l.379,2.064a.377.377,0,0,0,.3.3l1.155.228-.317,1.744a.386.386,0,0,0,.025.218l1.009,2.3a.378.378,0,0,0,.254.214l2.333.575a.41.41,0,0,0,.09.011.376.376,0,0,0,.335-.206l1.767-3.5a.374.374,0,0,0,.037-.218l-.5-3.843a.376.376,0,0,0-.259-.309l-3.721-1.176A.382.382,0,0,0,423.108,210.428Zm-.328,5.935.362-1.994a.376.376,0,0,0-.3-.436l-1.267-.25-.282-1.534,2.007-.981,3.266,1.033-3.075,5.791Zm2.752,2.485-1.7-.42,2.917-5.495.366,2.785Z" transform="translate(-30.314 0)" fill="#7f1084"/><path d="M397.981,312.77h3.5a.375.375,0,0,0,.375-.375v-1.647a.374.374,0,0,0-.116-.271.39.39,0,0,0-.277-.1l-6.338.314a.375.375,0,0,0-.141.715l2.838,1.333A.375.375,0,0,0,397.981,312.77Zm3.125-1.628v.878h-3.041l-1.4-.658Z" transform="translate(-28.451 0)" fill="#7f1084"/><path d="M493.477,305.386l-3.531-1.49a.375.375,0,0,0-.521.346v3.713a.375.375,0,0,0,.375.375h3.531a.375.375,0,0,0,.375-.375v-2.223A.375.375,0,0,0,493.477,305.386Zm-.521,2.193h-2.781v-2.772l2.781,1.174Z" transform="translate(-35.175 0)" fill="#7f1084"/><path d="M395.146,241.98a.38.38,0,0,0,.309.033l3.153-1.045a.376.376,0,0,0,.223-.2l2.774-6.065a.375.375,0,0,0-.086-.432l-2.144-1.986a.381.381,0,0,0-.43-.057L397.5,233l-3.437,2.823a.375.375,0,0,0-.13.359l1.04,5.542A.374.374,0,0,0,395.146,241.98Zm-.44-5.717,3.2-2.64,1.152-.608,1.75,1.622-2.594,5.67-2.591.858Z" transform="translate(-28.407 0)" fill="#7f1084"/><path d="M391.042,311.083l-10.595-1.566a.37.37,0,0,0-.416.272.375.375,0,0,0,.22.446l9.081,3.709a.377.377,0,0,0,.448-.131l1.514-2.143a.376.376,0,0,0-.252-.588Zm-1.7,2.054-5.938-2.425,6.928,1.024Z" transform="translate(-27.503 0)" fill="#7f1084"/><path d="M398.317,293.167a.435.435,0,0,0,.062,0c.986-.027,8.656-.526,8.991-.549a.373.373,0,0,0,.258-.127L409.9,289.9a.374.374,0,0,0,.056-.409.4.4,0,0,0-.354-.213l-13.148.549a.376.376,0,0,0-.288.154l-6.716,9.254a.375.375,0,0,0-.032.388l3.122,6.274a.375.375,0,0,0,.336.208.359.359,0,0,0,.105-.016l2.932-.862a.376.376,0,0,0,.266-.415l-.627-4.155.781-.519.72,2.784a.375.375,0,0,0,.378.281l4.067-.157a.375.375,0,0,0,.36-.375V299.69a.375.375,0,0,0-.059-.2l-1.575-2.472,3.6-1.775a.375.375,0,0,0-.166-.711h-.008c-2.229.044-5.361.1-6.854.1l.1-.113C397.241,294.127,398.056,293.212,398.317,293.167ZM396,295.334l0,.011.025-.008c.656.069,2.212.049,5.957-.024l-2.466,1.217a.374.374,0,0,0-.15.537l1.741,2.732v2.51l-3.405.131-.775-3a.378.378,0,0,0-.229-.257.367.367,0,0,0-.341.038l-1.419.941a.375.375,0,0,0-.164.368l.613,4.068-2.316.682-2.881-5.79,6.477-8.923,12.092-.5-1.591,1.813c-2.947.192-8.385.538-8.854.538a.372.372,0,0,0-.087.011c-.5.068-1.08.685-1.892,1.6-.226.253-.507.568-.536.6a.384.384,0,0,0-.277.42C395.542,295.192,395.556,295.285,396,295.334Z" transform="translate(-28.443 0)" fill="#7f1084"/><path d="M393.032,312.055a.375.375,0,0,0-.533.34V314.9a.375.375,0,0,0,.213.338l3.594,1.726a.375.375,0,0,0,.162.037.389.389,0,0,0,.129-.022.379.379,0,0,0,.214-.2l.946-2.118a.376.376,0,0,0-.185-.493Zm3.25,4.069-3.033-1.457v-1.684l3.672,1.711Z" transform="translate(-28.237 0)" fill="#7f1084"/><path d="M581.158,87.192l-41.867-21.75a.4.4,0,0,0-.209-.04l-6.56.627a.379.379,0,0,0-.218.1l-6.771,6.218-4.289-5.136a.374.374,0,0,0-.319-.134l-17.469,1.448-8.963-10.105a.39.39,0,0,0-.316-.124l-12.7,1.239L470,49.391a.374.374,0,0,0-.192-.09l-16.648-2.509a.379.379,0,0,0-.155.01l-8.324,2.3a.375.375,0,0,0-.206.579l3.021,4.237-4.281,2.055L429.2,53.485a.374.374,0,0,0-.278.061l-5.851,4.043-3.874-2.4V47.239a.376.376,0,0,0-.229-.346l-14.883-6.274a.377.377,0,0,0-.385.057l-2.27,1.882a.376.376,0,0,0-.136.289v4.018l-5.752,5.1L370.034,41.387a.38.38,0,0,0-.356.038l-4.325,2.988-2.65-1.858,12.466-9.729a.373.373,0,0,0,.136-.376l-2.774-12.757a.375.375,0,0,0-.361-.295l-16.595-.205-1.708-8.9a.375.375,0,0,0-.284-.295l-7.315-1.673a.365.365,0,0,0-.426.211l-5.224,11.542L334.491,21.5a.374.374,0,0,0-.24.18.37.37,0,0,0-.032.3l1.331,4.232-12.519-2a.4.4,0,0,0-.162.01L309,28.2a.371.371,0,0,0-.159.093L297.775,39.129l-9.287,4.994a.382.382,0,0,0-.128.112l-3.279,4.6a.377.377,0,0,0-.046.349l3.11,8.33-1.32.137L281.4,50.09a.373.373,0,0,0-.486-.109l-3.784,2.091a.376.376,0,0,0-.187.262l-1.469,8.121-2.019.457.951-8.47a.376.376,0,0,0-.334-.415l-4.036-.418a.378.378,0,0,0-.384.227L265.119,62.5a.375.375,0,0,0,.028.349l2.192,3.434-.762,4.658a.376.376,0,0,0,.387.436l9.015-.4,2.392,11.5-2.1.793L273.107,73.4a.376.376,0,0,0-.491-.236l-3.279,1.256a.374.374,0,0,0-.216.215l-4.952,12.727h-8.981l9.467-7.275a.373.373,0,0,0,.145-.336l-1.729-16.435,2.752-8.708a.376.376,0,0,0-.041-.314l-5.045-7.948a.374.374,0,0,0-.316-.174H257.14a.378.378,0,0,0-.255.1L244.5,57.762a.372.372,0,0,0-.109.362l3.406,14.119-3.176-.351L227.026,61.887a.371.371,0,0,0-.319-.024l-3.279,1.255a.376.376,0,0,0-.222.47l3.157,9.464-14.888,4.507,1.1-4.377a.375.375,0,0,0-.235-.444L208.3,71.273a.379.379,0,0,0-.377.072l-14.364,12.73-3.1-3.124,1.414-3.324a.375.375,0,0,0-.189-.488l-7.819-3.556a.375.375,0,0,0-.527.385l.482,4.2-2.632,2.38a.376.376,0,0,0-.041.514l3.754,4.669c-4.18,2.279-10.632,5.7-11.282,5.8-.261,0-1.037,0-1.573,4.409l-4.318-2.072a.37.37,0,0,0-.283-.017l-4.288,1.464a.374.374,0,0,0-.175.584l4.049,5.224-4.762-.172-5.879-13.649,14.085,4.751a.383.383,0,0,0,.413-.122l7.315-9.2a.375.375,0,0,0-.126-.569L152.154,69.235l-12.612-9.62a.359.359,0,0,0-.326-.063l-22.75,6.208a.373.373,0,0,0-.205.142L88.435,104.416l-9.551,4.038a.376.376,0,0,0-.2.207l-4.54,11.45a.374.374,0,0,0,.006.29l4.162,9.411a.376.376,0,0,0,.334.224l6.81.157a.466.466,0,0,0,.229-.072l5.8-4.229,2.695,9.828a.385.385,0,0,0,.055.116l3.972,5.647a.376.376,0,0,0,.307.159h2.837a.374.374,0,0,0,.357-.262l.879-2.771,4.325-.9a.375.375,0,0,0,.279-.247l3.378-9.975,3.72-6.641a.376.376,0,0,0-.115-.493l-5.561-3.81,2.9-8,7.875-7.049a.374.374,0,0,0,.1-.146l3.085-8.082,4.324-1.162,3.151,1.982-11.582,13.584a.374.374,0,0,0-.055.4l2.1,4.518-.248,5.659a.374.374,0,0,0,.258.373l7.062,2.3a.357.357,0,0,0,.187.012l11.836-2.271,2.165,1.367-2.273,2.783-10.047.411a.376.376,0,0,0-.272.134l-2.9,3.45a.376.376,0,0,0-.055.395l2.355,5.271-2.126.721-1.855-2.5a.373.373,0,0,0-.375-.145l-3.657.733a.373.373,0,0,0-.29.276l-2.487,10-2.7,1.752-15.622,1.559-7.577-.3-.858-2.137,3,1.076a.38.38,0,0,0,.271-.006l2.018-.836a.376.376,0,0,0,.224-.423l-.756-3.66a.36.36,0,0,0-.391-.3l-2.971.189-1.687-6.5a.374.374,0,0,0-.557-.228l-6.054,3.66a.375.375,0,0,0-.178.368l1.113,8.929L81.907,148.2l-3.968-.5a.37.37,0,0,0-.3.1l-3.658,3.346a.369.369,0,0,0-.109.181l-1.07,4.039-3.4.386a.374.374,0,0,0-.209.095l-9.6,8.687H52.543a.372.372,0,0,0-.24.087l-3.4,2.824a.375.375,0,0,0,.014.588l9.415,7.086-.822,7.4-17.7-.1a.337.337,0,0,0-.218.068l-4.162,2.927a.375.375,0,0,0-.124.467l2.211,4.686-2.107,7.6a.378.378,0,0,0,.021.259l1.892,4.078a.355.355,0,0,0,.347.217l5.589-.1,1.4,2.222a.369.369,0,0,0,.386.168l13.368-2.51a.371.371,0,0,0,.153-.066l4.541-3.347a.376.376,0,0,0,.15-.265l.61-6.076,6.383-3.46a.382.382,0,0,0,.145-.14l2.418-4.11,5.6-.2a.391.391,0,0,0,.177-.052l8.071-4.769,5.218,5.231a.4.4,0,0,0,.075.059l7.4,4.361,6.307,5.023.487,5.8a.371.371,0,0,0,.4.343l1.64-.1a.377.377,0,0,0,.3-.188l2.018-3.556a.376.376,0,0,0,.04-.268l-.594-2.658.5-.69,3.779,1.175a.382.382,0,0,0,.334-.057.374.374,0,0,0,.153-.3V192.1a.374.374,0,0,0-.224-.343l-6.112-2.681-10.339-7.436-.451-3.019,1.6-1.824L103.7,182.7a.375.375,0,0,0,.279.147l4.042.2,7.244,5.9,1.233,5.729a.375.375,0,0,0,.127.21l3.493,2.9,5.017,7.07a.374.374,0,0,0,.545.072l7.567-6.274a.375.375,0,0,0-.044-.609l-4.724-2.886-1.625-2.357,10.824-1.407,4.288-1.673a.376.376,0,0,0,.162-.577l-2.886-3.786,2.891-5.792,7.244-6.407,6.062,6.228a.372.372,0,0,0,.387.094l6.306-2.092a.374.374,0,0,0,.182-.58l-2.9-3.888,9.9-1.46-3.825,5.784a.375.375,0,0,0,.1.518l13.589,9.216-1.721,3.032-17.91-2.475a.347.347,0,0,0-.138.006l-21.944,5.229a.375.375,0,0,0-.288.35l-.253,6.065a.372.372,0,0,0,.129.3l6.051,5.234a.469.469,0,0,0,.258.092l18.062-.606-6.2,13.635-31.263-3.11a.418.418,0,0,0-.1,0l-13.717,2.274L87.917,200.579a.389.389,0,0,0-.263-.071L47.208,204.9a.377.377,0,0,0-.268.159L32.6,225.7,12.986,238.837a.374.374,0,0,0-.134.464l5.226,11.755-5.215,9.877a.373.373,0,0,0,.107.475L44,284.622a.369.369,0,0,0,.3.066l28.547-6.229L78,283.952a.373.373,0,0,0,.237.116l12.415,1.211-3.318,11.486a.376.376,0,0,0,.035.29l12.432,21.8-4.467,10.5a.377.377,0,0,0-.009.27l17.4,50.192a.375.375,0,0,0,.354.252l.049,0,18.918-2.51a.377.377,0,0,0,.144-.051l21.945-13.176a.373.373,0,0,0,.182-.321v-7.927l8.124-4.287a.376.376,0,0,0,.195-.269l2.249-13.057,12.022-11.835a.375.375,0,0,0,.1-.376l-4.517-14.979,1.478-10.417,24.069-15.59a.376.376,0,0,0,.156-.21l5.3-18.2a.376.376,0,0,0-.41-.477L184.4,268.863,157.8,226.6l2.938.813,8.723,9.388.184,5.66a.377.377,0,0,0,.1.245l10.141,10.744,2.058,9.155a.376.376,0,0,0,.3.287l6.055,1.1a.4.4,0,0,0,.209-.021l32.728-13.333a.379.379,0,0,0,.2-.187l4.926-10.366a.376.376,0,0,0-.12-.466L216.218,232.4a.371.371,0,0,0-.446.007l-4.63,3.53H205.4v-4.174a.374.374,0,0,0-.111-.267l-9.264-9.156,6.073-.545,19,11.544a.37.37,0,0,0,.192.055l25.013.154,12.755,12.133a.374.374,0,0,0,.476.034l3.46-2.458,1.06,8.785a.37.37,0,0,0,.035.12l10.972,22.429a.374.374,0,0,0,.183.177l2.081.942a.378.378,0,0,0,.411-.068l7.189-6.745a.377.377,0,0,0,.116-.234l1.306-12.369,19.657-12.736,8.447-3.653,8.612,10.024-.367,5.022a.377.377,0,0,0,.144.323l3.025,2.353a.379.379,0,0,0,.436.019l4.93-3.211,3.167,7.158-2.611,8.969a.377.377,0,0,0,.071.344l6.177,7.449.741,4.915a.372.372,0,0,0,.146.243l10.595,8a.38.38,0,0,0,.431.016L352.6,289.8a.376.376,0,0,0,.071-.568l-2.957-3.22-1.3-5.861a.374.374,0,0,0-.162-.233l-7.678-4.969-3.062-5.521,3.978-6.164,11.212,11.277a.373.373,0,0,0,.481.042l11.351-8a.374.374,0,0,0,.145-.2l1.7-5.96a.374.374,0,0,0-.077-.349L356.337,248.6l7.595-6,2.606,2.02a.383.383,0,0,0,.324.067l19.3-5.02a.376.376,0,0,0,.18-.108l12.669-13.642a.361.361,0,0,0,.093-.181l1.515-7.529a.37.37,0,0,0-.057-.284l-6.756-9.991,8.12-3.891a.371.371,0,0,0,.192-.216l.757-2.2a.374.374,0,0,0-.344-.5l-10.792-.308-3.4-4.513,10.154-4.935,1.4,5.208a.368.368,0,0,0,.432.271l7.651-1.442-1.637,4.071a.375.375,0,0,0,.348.515h4.9l-.734,13a.375.375,0,0,0,.553.352l9.081-4.922a.375.375,0,0,0,.181-.436l-3.729-12.678,7.329-9.418,5.1.3a.344.344,0,0,0,.28-.1l18.917-17.881a.377.377,0,0,0,.116-.24l1.893-21.959a.375.375,0,0,0-.294-.4l-12.235-2.687,13.846-15.407,14.3-.943,9.095-2.412,1.037,4.028a.364.364,0,0,0,.421.276l12.108-1.882a.374.374,0,0,0,.313-.318l1.108-7.966,9.438-5.031-1.42,3.063a.37.37,0,0,0,.009.333.376.376,0,0,0,.27.2l5.676.94a.38.38,0,0,0,.351-.132l4.314-5.229.309,4.845-19.929,19.957a.375.375,0,0,0-.1.361l4.54,16.94a.375.375,0,0,0,.627.169l17.026-16.94a.374.374,0,0,0,.107-.313l-1.108-8.574,10.625-8.506,5.088,2.409a.375.375,0,0,0,.334-.007l25.729-13.49a.359.359,0,0,0,.08-.057l3.4-3.137a.375.375,0,0,0-.091-.613l-8.963-4.335-1.21-2.51,5.866-.284a.375.375,0,0,0,.24-.1l4.76-4.553,18.328,5.686a.38.38,0,0,0,.44-.178l6.306-11.5a.38.38,0,0,0,.029-.29.374.374,0,0,0-.186-.224Zm-24.906,5.724a.373.373,0,0,0-.042,0L539.931,66.62l40.15,20.858L556.4,92.96Zm-31.043-19.79a.376.376,0,0,0,.264.134.362.362,0,0,0,.278-.1l6.969-6.4,5.814-.556-29.155,44.574L503.6,69.263l17.191-1.426Zm-4.228,46.453a.355.355,0,0,0-.1,0l-11.13-8.038,33.916-12.564Zm-97.042,65.577a.4.4,0,0,0-.144.117l-.035.044-24.375,5.128,37.32-46.11Zm-25.05,5.109-8.827-45.094,46.737-1.746Zm-8.873-45.593,1.207-39.28,45.449,37.537Zm-2.441,51.869.247.327,5.09,10.77a.239.239,0,0,0-.031.2l-28.9,33.856-14.856-27.572Zm-72.907,42.532-11.414-28.2,37.953-21.127,7.282,24.164Zm-51,3.467a.375.375,0,0,0-.22-.3.367.367,0,0,0-.283.006l-16.055-8.974-.208-.2,33.991-36.635,4.815,59.193Zm-71.921,2.407L220,250.328,188.72,263.071Zm-10.367-17.44,23.084,8.872-12.839,7.931Zm9.686,16.847-20.588-2.115,10.294-14.769ZM180.009,187l20.549-8.114-5.5,42.245-15.045-34.126Zm-53.857,5.138a.365.365,0,0,0-.12.048l-10.1-3.588a.371.371,0,0,0-.02-.033l5.379-19.018,17.1,15.806L126.413,192.1l-.261.034Zm-4.766-23.274-2.976-26.751,25.858,5.585,4.82,24.654-27.7-3.488ZM211.1,78.538l22.795,16.9-30.811,15.112Zm42.652,9.046c0,.006-.008.01-.011.015l-18.767,7.373,13.255-21.727,5.522,14.338ZM355.1,19.893l6.55,22.125L336.659,26.732Zm93.19,34.461,32.293,5.678L446.7,77.684ZM302.957,210.462l-21.163-14.43,58.366-6.278Zm-21.479-14.9L301.213,145.4l39.63,43.777Zm-51.056-3.39-29.055-13.708,45.527-30.34Zm-29.139-14.253,11.291-40.515,34.239,10.174Zm-30.946-7.471-.061-32.85,41.407-.255Zm.4-33.353L202.6,111.409l9.441,25.433ZM335.058,95.91l25.552,35.062L301.7,144.542Zm.007-.814L311.833,66.4l48.636,1.9Zm-23.84-28.654L334.4,95.071l-54.87-12.45Zm23.414,29.2L301.194,144.39,279.188,83.056ZM300.46,144.714l-52.6,2.5,18.6-29.931ZM247.5,146.856l-12.726-50.81,31.288,20.939Zm-.446.273L212.761,136.94l21.527-40.768Zm-34.612-10.651-9.411-25.351,30.761-15.081Zm88.315,8.723-19.724,50.133-33.168-47.616Zm.84-.123,59.058-13.6-19.394,57.417Zm34.018-49.255,54.814,9.212-29.353,25.725L335.613,95.823Zm-.059-.516,25.464-26.854,29.356,36.066Zm87.583-36.894,22.827,19.643-54.234,26.184Zm-32.164,46.05L361.5,68.252l61.055-9.876Zm-79.24-38.568,24.353-38.741L360.58,67.807Zm-.545-.073-21.965-8.05,46.044-30.255ZM288.8,58.178a.379.379,0,0,0,.042-.014l21.829,8L279.277,82.189,288.8,58.178Zm11.785,86-33.891-27.341L278.8,83.458ZM234.909,95.536l19.026-7.475.013,0,11.9,28.177Zm-64.666,41.319-2.157-34.982,34.09,9.243Zm-.48.335L145,147.018l22.62-44.55Zm-20.244,34.755-4.75-24.3,24.674-9.794Zm62.434-34.177L200.688,178.2l-30.047-7.352Zm-10.89,41.106,29.034,13.7-34.58,28.875Zm46.405-30.852,33.123,47.551-49.675-3.289Zm33.085,48.05-34.009,36.654-15.6-39.94Zm.834.288,21.257,14.494-16.49,44.1Zm67.549,17.3-7.225-23.975L386.9,196.3Zm12.246-82.178L389.316,145l-47.409,43.532Zm28.339,13.064-28.037-13.474,29.239-25.627ZM446.2,78.5l5.218,48.285-59.791-21.936Zm.485-.172,55.959-9.051-50.744,57.3Zm55.979-9.562L447.9,77.62l33.313-17.355a.385.385,0,0,0,.171.028l12.675-1.236,8.606,9.7Zm-22.392-9.291-30.864-5.427L469.392,50l.192.029,10.69,9.444Zm-34.881-9.789,7.731-2.136,14.823,2.234L448.3,53.759l-2.906-4.076ZM429.224,54.25,443.2,56.733a.386.386,0,0,0,.228-.031l4.342-2.084L446.2,77.6,423.591,58.143l5.633-3.892Zm-26.44-6.957,15.658.191.009,0v7.446l-15.667-7.641Zm1.224-5.9,13.213,5.571-15.172-.185V43.022Zm-2.169,5.99L418.479,55.5a.365.365,0,0,0,.149.209l3.57,2.214-59.353,9.6,32.622-14.782.008,0a.383.383,0,0,0,.393-.066Zm-31.9-5.229,24.9,10.325L361.365,67.65l4.18-22.465c.006,0,.013,0,.019-.006l4.372-3.021Zm-4.888,2.958-4.142,22.263L336.833,27.424l24.882,15.222a.37.37,0,0,0,.142.231l3.191,2.239Zm-2.88-3.1-6.473-21.869,18.7,12.326Zm12.246-10.132L356.3,19.952l15.559.192Zm-39.358-9.75,5.911-1.372a.375.375,0,0,0,.257-.211L346.4,9.125l6.778,1.55,1.684,8.774-18.492,6.858Zm-25.762,6.754L323,24.968l12.263,1.955L289.313,57.113l8.775-17.3.089-.048a.353.353,0,0,0,.085-.062l11.031-10.809ZM285.808,49.109l3.113-4.366,8.4-4.516-8.54,16.837Zm-8.156,3.533,3.337-1.844,5.112,7.129L276.25,60.4l1.4-7.755Zm-11.765,9.971,4.35-10.229,3.385.351-.968,8.617a.376.376,0,0,0,.456.408l1.865-.421-7.48,8.651.61-3.726A.377.377,0,0,0,268.05,66l-2.163-3.388ZM267.63,70.6l7.95-9.2.427,8.82-8.377.375Zm9.019-.088a.394.394,0,0,0-.137-.231l-.448-9.246a.372.372,0,0,0,.05-.084l10.337-2.592a.39.39,0,0,0,.236.065l1.543-.16-9.269,23.37-2.313-11.121Zm-12.223,17.6a.376.376,0,0,0,.35-.239l4.984-12.811L272.514,74l3.158,9.87a.374.374,0,0,0,.489.236l2.167-.817-11.947,32.934L254.509,88.109Zm-10.279-.9-5.418-14.067,15.081,6.643-9.662,7.425Zm9.808-8.319L245.24,58.206l19.724-3.376-2.633,8.332a.385.385,0,0,0-.016.152l1.64,15.579Zm-6.668-31.975h2.926l4.7,7.412-19.153,3.278ZM245.4,59.128l18.053,19.956-14.812-6.523L245.4,59.128Zm-21.37,4.562,2.778-1.063,16.6,9.444-16.265.963Zm2.918,9.968a.369.369,0,0,0,.142-.118l17.121-1.014.1.058a.381.381,0,0,0,.145.047L247.8,73,234.3,95.115,211.619,78.3Zm-18.691-1.6,3.507,1.272-1.178,4.69a.365.365,0,0,0,.058.287l-8.038,32.1L185.9,86.038l7.434-1.156a.364.364,0,0,0,.456-.01l14.463-12.817Zm-26.306,8.814,2.513-2.272a.372.372,0,0,0,.12-.321l-.429-3.733,6.883,3.129-1.37,3.22a.372.372,0,0,0,.079.411l3.126,3.146-7.15,1.112-3.773-4.691ZM163.895,95.861l3.646-1.245,4.655,2.233a.374.374,0,0,0,.535-.3,15.657,15.657,0,0,1,.888-4.265c.76,0,8.391-4.12,11.845-6.008l16.661,24.3L168.14,101.37a.352.352,0,0,0-.027-.067l-4.218-5.441Zm-2.223,5.61a.376.376,0,0,0,.331.227l4.763.172-26.458,15.739L155.62,87.42l6.052,14.052Zm-6.444-14.385-15.5,30.565-8.784-23.484,24.287-7.081ZM139.38,60.433l12.063,9.194-23.881,21.2,11.818-30.4Zm16.508,25.914-3.575-16.2,24.614,12.287-20.944,3.947Zm14.575,4.916-13.51-4.557,20.153-3.8ZM116.471,66.891l5.516,25.861a.362.362,0,0,0-.045.066L89.549,104.156l26.923-37.265Zm-24.575,58L89,105.217l18.658,11.468-15.76,8.2ZM79.32,109.084l9.17-3.877,2.9,19.718-16.453-4.8Zm6.023,20.356-6.445-.148-3.8-8.6,15.893,4.635-5.645,4.113Zm16.878,8.48a.375.375,0,0,0-.281.254l-.863,2.719H98.709l-3.822-5.435-2.57-9.373,13.818,11.024Zm11.248-17.137-3.581,6.4-3.278,9.661L92.156,125.318l15.871-8.263ZM118.818,101l-7.877,7.051a.373.373,0,0,0-.1.151l-2.917,8.061L89.255,104.789,121.707,93.43,118.818,101Zm3.632-8.474-5.567-26.1,21.962-5.994L126.824,91.35l-4.373,1.175Zm5.017-.944,24.3-21.576,3.636,16.481c-.006.01-.01.021-.015.031l-24.581,7.167-3.344-2.1Zm3.11,3.041,8.655,23.139-19.967-9.873Zm-2.85,25.559-6.7-2.182.239-5.466a.371.371,0,0,0-.035-.175l-1.78-3.821,19.277,9.532Zm12.559-1.977L167.2,102.193l-22.535,44.382-2.053-26.383.012-.014a.375.375,0,0,0-.09-.555l-2.247-1.42Zm-19.338,13.77,3.191-.64,1.876,2.528a.378.378,0,0,0,.422.132l2.775-.941a.375.375,0,0,0,.222-.509l-2.427-5.432,2.643-3.144,10.05-.411a.377.377,0,0,0,.275-.138l2.179-2.668,2.056,26.422-25.665-5.543,2.4-9.657ZM99.491,145.62l15.765-1.569a.379.379,0,0,0,.167-.059l2.512-1.63,2.908,26.138-28.3-23.155ZM69.6,156.477l3.537-.4a.376.376,0,0,0,.32-.277l1.107-4.181,3.449-3.154,3.99.5a.383.383,0,0,0,.325-.121l3.4-3.765a.373.373,0,0,0,.094-.3l-1.1-8.857,5.416-3.274,1.638,6.313a.362.362,0,0,0,.387.28l2.955-.188.627,3.038-1.6.661-3.646-1.31a.368.368,0,0,0-.4.093.374.374,0,0,0-.078.4l1.261,3.138a.363.363,0,0,0,.07.088l-4.83,33.989L60.277,164.913l9.328-8.436ZM58.954,174.64l-9.207-6.93,2.931-2.435h7L72.1,184.355l-13.854-1.668.857-7.706a.375.375,0,0,0-.147-.341Zm-22.832,11.2,3.806-2.676,17.678.1.479,18.434-19.821-11.26c-.006-.023,0-.048-.006-.069l-2.136-4.526Zm7.662,16.2a.33.33,0,0,0-.324-.175l-5.556.1-1.731-3.732,2.013-7.264,19.277,10.951-12.3,2.309-1.378-2.185Zm26.023-13.365-6.466,3.5a.375.375,0,0,0-.194.293l-.614,6.108L58.579,201.5,58.1,183.174l13.952,1.679-2.249,3.822Zm8.485-4.587-5.638.2-12.172-18.7,25.607,13.889Zm9.142-4.363,9.2-.916-4.433,5.7-4.77-4.782Zm26.531,13.954-3.55-1.1a.377.377,0,0,0-.415.139l-.757,1.045a.375.375,0,0,0-.062.3l.6,2.682L107.933,200l-1.071.065-.47-5.6a.374.374,0,0,0-.14-.262l-6.477-5.154-5.415-3.2,13.363,3.663.284.2,5.956,2.621v1.338Zm-7.407-5-13.834-3.792-.124-.073,4.325-5.56.4,2.652a.377.377,0,0,0,.152.249l9.084,6.524Zm-9.647-10.423c-.006.007-.008.017-.014.025l-9.881.984,4.812-33.86,28.824,23.585L99.393,175.88a.37.37,0,0,0-.172-.052.345.345,0,0,0-.294.128l-2.018,2.3Zm11.493,4.136a.386.386,0,0,0-.218-.084l-3.992-.2-4.444-5.816,21.044-6.822L115.5,188.177Zm19.507,13.261a.378.378,0,0,0,.113.107l4.344,2.653-6.852,5.682-4.811-6.78a.359.359,0,0,0-.066-.072l-3.431-2.845-1.122-5.213,9.784,3.475a.358.358,0,0,0,.023.065l2.018,2.929Zm13.325-6.446-3.737,1.469-9.765,1.26,10.9-6.143Zm.351-10.151a.378.378,0,0,0-.087.113l-2.861,5.733L121.9,169.433l26.754,3.368Zm19.821-2.212-5.589,1.854-5.649-5.8h8.29Zm-2.722-4.57a.366.366,0,0,0-.211.121h-8.637l19.941-34.121.06,32.355Zm7.634,5.079,4.012-6.065,29.71,7.268-20.19,7.973Zm13.392,10.215,14.953,33.917-32.214-17.72,15.159-12.972h0a.368.368,0,0,0,.377-.186ZM194.565,222l-13.7,4.717-17.856-22.074Zm-51.144-18-.02-.017-5.425-10.563,20.569-4.9Zm18.771-.68-2.378-14.991,17.13,2.367Zm-24.314-9,4.511,8.785-4.708-4.072Zm6.207,9.712,15.24-15.6,2.381,15.007Zm18.079.354,17.873,22.1-24.117-8.355Zm-38.224,11.09,31.126,3.1-10.69,29.454L110.73,217.671Zm50.027,63.973-26.311,2.468L144.773,248.9,183.8,269.331ZM139.557,329l-1.619-15.229,34.452-12.428ZM132.075,376.7l-10.228-25.4,31.562,4.723L132.239,376.6Zm-10.586-24.95L131.6,376.853l-18.133,2.405Zm-.014-1.18-20.683-31.321,38.125,10.389-17.442,20.932Zm16.552-59.056L107.763,266.1,147,282.283ZM50.4,245.029l19.111,9.465L44.6,283.5l5.8-38.471Zm.5-.307,24.8-6.785-5.93,16.129L50.9,244.721Zm58.9-2.489-32.971-4.811,32.971-19.58Zm-.91.372L70.312,254.033l5.952-16.19,32.63,4.761Zm.851.268-3.568,22.072L70.784,254.414Zm-2.727,22.381,37.248-16.421,2.878,32.97-40.125-16.549Zm-.32-.405,3.563-22.038,33.359,5.761L106.7,264.849ZM110.3,242.31V217.96l33.372,30.113L110.3,242.31Zm-33.77-5.292,11.25-35.6,21.7,16.036Zm-.583.185L54.882,225.755,87.22,201.542ZM54.543,225.384,47.63,205.609l38.979-4.233L54.543,225.384Zm-.187.655L75.434,237.49,50.28,244.373,33.438,226.218l20.919-.179Zm-10.3,57.666L18.936,251.234,49.9,244.967ZM69.732,255l2.953,22.729-27.654,6.034Zm3.454,22.7-2.98-22.937L105.6,265.294,73.186,277.7Zm64.02,13.773L91.6,284.763l14.818-19.141Zm.583.591-.363,21.1L92.3,285.372Zm-.848,21.384-36.455,5.088-.167-.293-8.779-32.752Zm-35.489,5.458,35.994-5.023,1.624,15.274Zm36.472-5.663.367-21.29,9.168-9.433,25.623,18.04Zm-90.7-107.281,6.844,19.578-20.565.176,13.721-19.754ZM32.918,226.392,49.533,244.3l-35.483-5.275Zm-19.161,13.1,34.99,5.2-29.979,6.067-5.01-11.269Zm4.861,12.15,23.989,31.006L13.676,261l4.941-9.36Zm59.836,31.7L73.541,278.1l32.089-12.283L91.113,284.57l-12.66-1.235Zm12.739,2.788,8.151,30.409L88.1,296.822Zm9.159,33.361,19.956,30.22-24.223-20.2,4.267-10.025ZM96.4,330.425l24.763,20.645-8.044,27.585Zm37.715,45.045L153.57,356.56v7.231Zm19.654-19.954c-.019.01-.029.03-.046.043l-31.8-4.757,17.45-20.941,22.374,21.444Zm8.224-4.673-21.629-20.731,23.772,8.292Zm14.229-24.592L165.1,337.2l6.95-24.779Zm-4.488-15a.368.368,0,0,0,.012.161l.036.118-7.4,26.377-.042.042-24.489-8.542,33.284-28.038Zm1.78-10.994L148.126,282.38l25.944-2.433,22.956,5.079Zm24.021-15.629-22.961-5.08,9.632-9.917a.367.367,0,0,0,.057.009l18.348-2.435ZM183.287,268.5,144.8,248.344l10.591-29.18,1.289,6.585,0,0a.376.376,0,0,0-.017.424ZM161.22,226.82a.378.378,0,0,0-.175-.106l-3.883-1.075-1.374-7.025,24.6,8.524-10.02,14.377-.159-4.883a.373.373,0,0,0-.1-.243Zm9.638,15.959,20.031,2.059-10.52,8.017Zm9.769,10.508,10.562-8.05-3,17.966-5.561-1.009Zm35.379-20.117,9.547,6.87-4.577,9.631-9.3-13.2Zm-4.791,3.516,9.327,13.237-28.323-5.4,12.723-7.859a.361.361,0,0,0,.085.017Zm-6.564-4.768v4l-23.137-8.892L195,222.378Zm-2.269-10.829a.359.359,0,0,0-.228-.053l-6.013.539,34.314-28.653L246.034,232.8l-24.632-.152Zm56.972,23.835-10.789-10.263,14.123,7.894Zm5.438,6.965-1.052-8.724,21.868,12.994-.012.118L275.5,273.77Zm19.52,16.556-6.905,6.478-1.583-.717,9.644-16.7ZM305.654,242.9l-19.08,12.355,16.377-43.8L314.182,239.2Zm20.464,13.972-2.656-2.065.363-4.977a.377.377,0,0,0-.09-.271l-8.7-10.132,33.144-24.66-16.891,38.765a.367.367,0,0,0-.091.035Zm15.329,5.435a.4.4,0,0,0-.066-.008l-.007,0-9.438-8.268,23.071-5.043Zm-4.626,7.437.062.112,1.092,7.25-5.24-6.319Zm1.72,7.764-.964-6.4,2.345,4.228Zm13.274,11.908-2.057,1.34-9.012-6.8,8.3,2.421a.386.386,0,0,0,.039.076ZM348.9,285.8l-8.909-2.6,7.754-2.6Zm-1.567-5.586-7.854,2.633-.71-4.713c0-.01-.01-.018-.013-.029l1.55-2.44ZM336.753,269.21c-.007.011-.005.025-.011.036l-4.092,1.044,2.51-8.621a.372.372,0,0,0-.018-.256l-2.824-6.383,8.679,7.6Zm5.117-6.62,13.6-13.36-2.685,24.342Zm23.725-2.181-1.608,5.637-10.7,7.539,2.677-24.264Zm-10.031-12.151a.378.378,0,0,0-.1.118l-23.641,5.167L348.8,214.575l14.746,27.369Zm44.289-30.047-1.463,7.271-12.522,13.484-19.016,4.945L364.378,242l28.768-33.7Zm-8.314-16.647,10.462.3-.54,1.569-8.141,3.9-4.018-8.5,1.948,2.584A.376.376,0,0,0,391.538,201.564Zm-3.937-5.732a.364.364,0,0,0-.072.057l-45.617-6.683L389.6,145.418l8.837,45.146Zm28.563-.5,3.7,12.57-8.224,4.457.719-12.72a.374.374,0,0,0-.374-.4h-4.745l1.686-4.191a.374.374,0,0,0-.417-.508l-7.982,1.5L399.17,191l24.114-5.073L416.227,195A.374.374,0,0,0,416.163,195.333ZM449.8,146.273l-1.852,21.488-18.7,17.672-4.786-.284,13.005-41.583Zm-12.584-3.546-44.937-37.113,58.877,21.6Zm66.938-25.7-4.977-.824,1.684-3.631a.375.375,0,0,0-.517-.489l-10.594,5.647a.376.376,0,0,0-.194.279l-1.1,7.879-11.5,1.787-1.047-4.064a.375.375,0,0,0-.174-.229.369.369,0,0,0-.285-.039l-9.388,2.5-13.638.893,50.7-57.247,5.809,41.745,0,0-4.78,5.793Zm-9.865,36.7-4.279-15.967h20.327Zm16.422-16.467H490.764l18.894-8.122Zm-.96-8.827a.369.369,0,0,0-.116.172l-18.675,8.028,18.908-18.935a.373.373,0,0,0,.108-.288l-.339-5.331,10.8,7.8-10.686,8.555Zm36.217-26.838a.379.379,0,0,0,.175.175l8.585,4.152-2.959,2.729-25.52,13.381-4.746-2.247,23.114-20.99,1.35,2.8Zm5.1-3.98-6.292.306a.377.377,0,0,0-.3.184.349.349,0,0,0-.016.052l-34.6,12.818,29.256-44.729,16.644,26.885Zm23.435.964-17.156-5.322,22.993-5.322Z" transform="translate(0 0)" fill="#7f1084"/><path d="M468.295,334.6l-9.057-19.069a.376.376,0,0,0-.473-.189l-4.919,1.882a.373.373,0,0,0-.233.276l-2.931,14.58-11.389-5.606,2.184-7.54a.375.375,0,0,0-.36-.479H425.228a.376.376,0,0,0-.264.108l-7.73,7.63-5.8-3.757a.373.373,0,0,0-.481.063L397.769,337.02l-21.861,8.438a.375.375,0,0,0-.232.426l5.274,25.6-1.839,3.966a.374.374,0,0,0,.248.521l8.7,2.2a.384.384,0,0,0,.24-.019l9.368-4.039,5.578.616a.468.468,0,0,0,.1,0c7.146-1.221,25.894-4.388,26.8-4.388.647.018,4.427,2.842,7.707,5.562a.376.376,0,0,0,.5-.015l2.669-2.489,2.418,4.586a.4.4,0,0,0,.088.11l11.731,10.034a.375.375,0,0,0,.244.09.351.351,0,0,0,.046,0l22.7-2.823a.375.375,0,0,0,.329-.372v-9.614l7.127-10.885a.372.372,0,0,0,.062-.205V350.2a.374.374,0,0,0-.127-.281Zm-9.138,25.728,25.856-9.718v13.4Zm25.621-10.165-26.192,9.845,9.453-24.632Zm-87.129,23.2-15.817-2.017,17.689-20.331,3.448,22.935Zm-9.531,4.057-.034-.009-6.005-5.532,14.572,1.861ZM399.4,350.128l-22.221-4.357L397.8,337.81Zm51.743-17.18a.36.36,0,0,0,.048-.039l15.894,2.055L449,343.279Zm-2.6,10.073L439.6,327.458l11.049,5.44Zm-9.7-15.867,9.4,16.349-20.772,2.007ZM427.016,345.3l-9.326-18.377H438.4Zm-9.773-18.152,9.374,18.473-26.358,4.474Zm-17.226,23.8,29.254,18.749c-4.4.61-23.263,3.823-25.8,4.254Zm.359-.363,26.409-4.482,3.049,23.361ZM448.323,344l-7.278,28.093-13.65-26.07Zm.419.377,9.085,15.988L441.54,372.173Zm.264-.549,18.523-8.516-9.418,24.54Zm18.412-9.324-16.041-2.073.037-.186,7.419-15.817Zm-13.11-16.651,4.027-1.54-6.505,13.87Zm-15.723,8.376-12.2-7.023h14.232Zm-13.2-7.023h0l12.536,7.217H418.07Zm-14.091,4.034,5.557,3.6-16.988,22.952-1.584-12.215Zm-34.8,22.907,22.721,4.456-17.629,20.261Zm5.026,25.893,5.549,5.112-7.089-1.793Zm56.559,3.077c-1.769-1.459-6.292-5.106-7.718-5.486l-2.932-22.467,13.327,25.456Zm3.464-2.328,16.312-11.827-2.544,26.229-11.245-9.618ZM458.364,360.9l19.375,14.367L455.795,387.4Zm-1.318,26.376,20.779-11.486v8.9Zm20.989-12.412-18.93-14.037,25.72,3.666Z" transform="translate(-30.147 0)" fill="#7f1084"/><path d="M442.817,200.146l-1.7-.266a.359.359,0,0,0-.395.206l-2.417,4.958-5.56-.148a.374.374,0,0,0-.184.042l-8.322,4.339a.375.375,0,0,0,.073.694l3.973,1.1a.371.371,0,0,0,.251-.019l5.85-2.58,1.551.042.526,3.971a.376.376,0,0,0,.372.326h3.152a.374.374,0,0,0,.345-.229l1.419-3.342,2.479,1.279a.37.37,0,0,0,.414-.047l3.384-2.855,3.723.946a.38.38,0,0,0,.3-.048.377.377,0,0,0,.166-.25l1.556-8.721,1.369-1.381a.371.371,0,0,0,.105-.307l-.884-7.687a.373.373,0,0,0-.449-.324l-3.973.836a.376.376,0,0,0-.293.306l-.923,5.562-5.664,4.65.077-.64A.374.374,0,0,0,442.817,200.146Zm-1.545.518,1.071.167-.146,1.208a.372.372,0,0,0,.4.418l4.822,4.609-5.651,1.345-.041-.021a.362.362,0,0,0-.17-.038l-2.638-2.871Zm-1.535,11.4h-2.576l-.524-3.962a.376.376,0,0,0-.362-.326l-1.955-.053a.292.292,0,0,0-.161.032l-5.8,2.56-2.926-.81,7.393-3.854,5.7.152.013,0,2.639,2.873Zm4.611-2.322-1.893-.977,4.249-1.012Zm7.193-2-3.519-.895a.376.376,0,0,0-.109,0l-4.845-4.63,9.9-2.483Zm-2.238-10.7a.373.373,0,0,0,.132-.229l.9-5.447,3.319-.7.815,7.1L453.15,199.1c-.021.021-.025.053-.04.078l-9.228,2.313Z" transform="translate(-31.307 0)" fill="#7f1084"/><path d="M974.125,305.555a.375.375,0,0,0-.25-.234l-41.064-11.836.472-5.129a.375.375,0,0,0-.142-.329l-9.08-7.11a.408.408,0,0,0-.243-.08l-6.689.205-14.018-9.549a.367.367,0,0,0-.156-.062l-30.017-4.392a.369.369,0,0,0-.176.016l-9.837,3.346a.376.376,0,0,0-.159.106l-3.27,3.68L857,271.744a.373.373,0,0,0-.263-.107h-5.55a.383.383,0,0,0-.157.034l-4.331,2-5.231-4.142-.247-9.444a.375.375,0,0,0-.336-.363L827.47,258.3l4.152-13.363a.378.378,0,0,0-.059-.337.411.411,0,0,0-.309-.149l-9.333.209a.376.376,0,0,0-.323.2l-3.174,6.021H809l-8.562-10.9,7.844-14.229,33.077.206,3.688,8.766a.379.379,0,0,0,.134.164l4.288,2.928a.378.378,0,0,0,.377.027.373.373,0,0,0,.209-.313l.5-8.155a.371.371,0,0,0-.04-.194l-4.134-8.064,14.851-9.646a.377.377,0,0,0,.156-.209l4.242-14.488,10.71-5.782a.375.375,0,0,0,.191-.4l-.7-3.891,13.67-5.956-1.816,3.681a.374.374,0,0,0,.143.487l2.774,1.674a.368.368,0,0,0,.371.009l10.847-5.856a.374.374,0,0,0,.2-.33v-2.719a.375.375,0,0,0-.3-.368l-9.486-1.823,1.21-8.219a.375.375,0,0,0-.358-.43l-6.306-.209a.471.471,0,0,0-.2.052l-9.069,5.318,1.959-3.249,12.17-6.589,12.75,1.243a.365.365,0,0,0,.295-.1l3.215-3.074,6.219-1.855a.375.375,0,0,0,.256-.267l1.766-6.9a.374.374,0,0,0-.192-.427l-3.227-1.64-12.027-8.935-8.537-19.148a.37.37,0,0,0-.461-.2l-2.522.835a.378.378,0,0,0-.221.2L884.6,131.09l-5.562-4.419-.739-6.33a.374.374,0,0,0-.272-.317l-2.963-.819-9.026-6.444a.375.375,0,0,0-.172-.066l-10.09-1.254a.376.376,0,0,0-.276.076.372.372,0,0,0-.142.25l-1.752,14.324-2.962,3.677a.375.375,0,0,0-.041.408l4.713,9.049-2.71,6.847a.365.365,0,0,0-.024.171l.987,10.96-3.409,2.12-4.894-18.357,1.246-6.768a.375.375,0,0,0-.369-.442H835.18l-10.743-9.012a.376.376,0,0,0-.219-.087l-6.709-.4v-4.039a.38.38,0,0,0-.074-.225l-3.228-4.319-1.292-7.1,10.53-.162a.375.375,0,0,0,.331-.21l3.783-7.738a.374.374,0,0,0-.051-.407l-2.88-3.411,5.563.887a.374.374,0,0,0,.431-.323l.679-5.438,3.271,2.351a.379.379,0,0,0,.283.064.371.371,0,0,0,.244-.156l1.862-2.7,2.514.758a.372.372,0,0,0,.36-.081l5.549-5.02a.375.375,0,0,0,.1-.407l-1.712-4.666,2.207-4.88a.375.375,0,0,0-.146-.475L836.247,70.7a.375.375,0,0,0-.553.208l-4.716,15.019-3.166.175-.974-9.891a.375.375,0,0,0-.2-.3L823.1,74.137a.374.374,0,0,0-.508.176l-1.7,3.62-4.657-8.492-.49-3.7a.373.373,0,0,0-.076-.181l-7.189-9.2a.377.377,0,0,0-.264-.144.373.373,0,0,0-.284.1l-4.036,3.658a.38.38,0,0,0-.117.212l-1.387,7.738a.375.375,0,0,0,.241.419l5.773,2.1-1.213,9.933-2.954,3.086-2.533-4.968a.356.356,0,0,0-.392-.2l-2.019.314a.372.372,0,0,0-.274.2l-2.412,4.6L784.464,82.9l-7.605-5.065a.369.369,0,0,0-.187-.062l-3.909-.21a.33.33,0,0,0-.254.081l-3.279,2.614a.373.373,0,0,0-.142.293v2.279l-2.342.266-2.307-1.007a.365.365,0,0,0-.269-.012l-6.22,2.063-7.319-1.175.481-1.833,2.87-1.389a.374.374,0,0,0,.185-.478l-.756-1.882a.373.373,0,0,0-.248-.222l-26.025-7.192-7.567-4.078a.374.374,0,0,0-.336-.01L695.2,77.088l-13.072-7.741a.4.4,0,0,0-.118-.046l-43.889-8.783a.378.378,0,0,0-.312.079l-4.842,4.015-8.982,1.552a.37.37,0,0,0-.247.159l-5.244,7.76-6.342,3.093a.374.374,0,0,0-.211.337v4.706a.375.375,0,0,0,.369.375l10.575.156-.322,4.276h-5.469l-1.6-3.394a.377.377,0,0,0-.229-.2.382.382,0,0,0-.3.035l-8.513,5.02a.376.376,0,0,0-.091.571l6.243,7.059a.369.369,0,0,0,.325.124l10.29-1.219.993,3.013-6.624,3.117H613.13a.373.373,0,0,0-.307.16l-4.729,6.745a.374.374,0,0,0,.08.514l11.262,8.559,1.854,5.228a.355.355,0,0,0,.374.249L632.64,122l.167,4.593-12.325,8.827a.376.376,0,0,0-.156.3v2.2a.376.376,0,0,0,.169.313.38.38,0,0,0,.355.03l19.485-8.47a.371.371,0,0,0,.15-.118l6.621-8.784a.375.375,0,0,0,.075-.226v-5.3l5.586-4.222-.848,7.444a.376.376,0,0,0,.128.325.369.369,0,0,0,.34.079l10.784-2.822a.374.374,0,0,0,.243-.525l-1.139-2.357,30.11,9.438,25.808,26.359-2.817,3.5a.375.375,0,0,0-.028.43l11.241,18.563.753,22.489a.381.381,0,0,0,.063.2l12.139,18.077,26.614,30.038a.5.5,0,0,0,.625.1l2.9-1.353a.373.373,0,0,0,.141-.565l-14.042-18.594,1.843.2L780.209,244.3,777.53,248.6a.376.376,0,0,0,.172.544l27.432,11.607a.383.383,0,0,0,.256.013l7.525-2.283,5.516,6.251a.374.374,0,0,0,.281.127h7.278l8.237,4.7v3.391a.376.376,0,0,0,.236.349l14.567,5.8a.381.381,0,0,0,.3-.011.375.375,0,0,0,.2-.229l1.047-3.474,3.268.271,4.522,9.452L846.819,297a.372.372,0,0,0-.105.263l.063,9.883a.381.381,0,0,0,.065.21l13.621,19.867a.381.381,0,0,0,.079.084l15.718,12.2-10,64.039-.076.094a.249.249,0,0,0,.034.343.374.374,0,0,0,.044.2l2.182,3.212-.91,4.147h-2.978a.375.375,0,0,0-.375.382l.5,25.725a.376.376,0,0,0,.231.34l9.585,3.973a.384.384,0,0,0,.144.028.375.375,0,0,0,.367-.452l-.933-4.445,8.213-1.8a.374.374,0,0,0,.286-.445l-1.222-5.677,9.973-11.989a.377.377,0,0,0,.084-.283.372.372,0,0,0-.146-.256l-5.405-4.094,5.405-4.093a.369.369,0,0,0,.124-.167l2.521-6.692a.359.359,0,0,0,.024-.132v-4.2l6.413.394a.351.351,0,0,0,.28-.1.377.377,0,0,0,.118-.273v-4.7l12.8-2.246a.375.375,0,0,0,.3-.293l1.262-6.064a.377.377,0,0,0-.007-.181l-1.591-5.464,8.215,1.752a.387.387,0,0,0,.368-.129l16.144-19.658a.377.377,0,0,0,.079-.3l-.964-5.389,10.038-5.887,8.483-.414a.377.377,0,0,0,.3-.18l9.333-15.267a.371.371,0,0,0,.055-.2v-7.193l10.519-13.912a.378.378,0,0,0,.055-.353l-2.019-5.646ZM912.814,377.51a.354.354,0,0,0-.106.067l0,0-24.418-.547,14.03-12.673c.024-.022.025-.054.039-.082l13.788.889ZM893.705,396.47l-5.718-18.84L914.09,384l-13.474,7.841ZM876.928,339.1c-.013-.014-.018-.033-.034-.045l-.219-.17-7.294-12.1,30.4,12.319ZM847.466,297.61l12.566,2.92-12.509,6.153Zm13.176,3.178,4.56,11.255-17.359-4.96Zm55.4-19.581-23.643.856,10.435-9.854Zm48.78,51.231-16.974,1.353,16.974-8Zm-18.215,1.385-10.927-19.758,11.408-2.494,17.639,13.714Zm-11.1-20.231-2.723-19,13.911,16.558Zm-3.22-18.948,2.69,18.771-8.844-5.127Zm-.245-.92a.356.356,0,0,0,.041.158l-6.128,13.587-1.931-16.349,8.479-2.42Zm-13.987,33.128-16.7,11.979,2.956-38.476,21.169,8.177Zm-15.867,36.481-.692-19.062-.161-4.44,13,8.711Zm-28.036-81.253-.978-14.13,17.852,14.13Zm16.9.5-17.821,14.807.919-14.807Zm32.454,8.45,2.005,16.978-21.039-8.126,12.554-18.026ZM885.12,313.161l-11.637-14.926,29.883,1.971Zm18.674-12.645-2.923,38.052-15.464-25Zm.29-.949-11.873-17,24.322-.881Zm-.5.152-29.993-1.977,18.1-15.042Zm-19.046,13.5-18.518-1.02,6.973-13.788Zm.469.647,15.442,24.963L869.275,326.2ZM924,290.607l.079-8.725,8.145,6.378Zm-.5-.445-5.921-8.383,6-.184Zm-31.773-8.156-17.758-14.057,28.266,4.136Zm-18.114-.352-10.028-10.685,9.076-3.087Zm-.89,15.765-13.368-12.081,14.284-2.7Zm-7.076,14.4-4.534-11.192,11.371-2.327Zm18.742,1.9-15.454,12.114-3-13.136Zm-15.744,12.817,6.932,11.5-13.972-10.85Zm32.216,14.263.834,22.987-28.749,3.474,27.883-27.329Zm.784,23.5-14.057,12.7-14.608-9.238Zm.813-.507,12.055-14.679,1.673,15.564Zm14.228.851L915,348.923l22.221,11.048Zm-2.172-16.569L901.5,339.343l16.414-11.776Zm11.413-39.316,8.915,5.168L918.833,326.25Zm9.287,5.513L946,333.765l-27.187-6.871Zm10.932,20.055-9.238,19.589-18.07-26.491Zm.158.837.716,12.911-9.406,5.516Zm.457-.775,17.705-1.411-16.959,14.849Zm18.289-9.473-17.327-13.472,25.627-5.411L965.2,324.709Zm-17.81-13.88L933.272,294.4l39.2,11.3Zm-84.105-39.808,10.281,10.954-14.329,2.705.653-9.858a.363.363,0,0,0,.053-.04Zm-28.159-1.6,5.166.291-5.166,2.579Zm5.521-8.565.219,8.387-5.662-.319Zm5.919,13.348a.356.356,0,0,0,.136.056l1.972,3.637-11.76-4.682,9.557.913Zm-.818-.647-10.105-.965,5.449-2.72Zm-6.341-13.45L826.4,264.128l.77-5.1Zm-12.621-1.132-.744,4.938h-6.221Zm-.021-.653a.369.369,0,0,0,0,.058l-6.99,4.955,10.5-16.287Zm-4.458-13.109,8.352-.187L819.423,250.6Zm-21.559-4,7.873,10.024-3.146,8.158Zm8.262,10.405,3.72,5.985-6.827,2.071Zm4.2,5.813-3.724-5.992h8.67Zm-13.4-17.8-17.788,3.9,25.227-17.4Zm-59.321-27.706-.081-.092L751.165,202l3.446,18.99Zm-21.359-63.274,7.327-40.983,20.781,28.965-20.065,34.03-.068-.112-7.944-21.539A.354.354,0,0,0,718.984,148.846Zm31.059-65.1,9.965,34.742-12.619,17.9L726.5,107.262l23.547-23.521Zm19.526,0L787.3,108.677l-26.663,9.458,8.928-34.4Zm27.4.382a.367.367,0,0,0,.108-.075l6.789.29a.359.359,0,0,0,.125.1l8.125,23.538-24.057.571,8.909-24.421ZM813.613,116.4l.65,45.612-10.228-4.245-15.985-17.359L813.613,116.4Zm21.471,18.1h.055l9.379,6.531a.362.362,0,0,0,0,.04l.033.124-15.305,49.747-14.437-28.532Zm-52.505,64.131L758.332,175.7l20.847-24.782,6.033,22.91Zm-2.756-48.106-.131-.218,7.715-9.172-2.087,31.14-5.637-21.4a.238.238,0,0,0,.115-.052A.248.248,0,0,0,779.823,150.53Zm8.094-9.53,15.614,16.957-17.775,15.286Zm-8.5,8.858L761.211,119.59l26.135,20.844Zm-19.155-30.872L779,150.123l-31.223-13.415Zm18.543,31.6L758.1,175.2l-10.333-37.953Zm6.9,23.363,17.952-15.438,1.363,48.816L783.043,199Zm22.065,51.208c-.011.015-.029.023-.038.039l-.086.156-26.014,17.94,23.5-34.932Zm-2.215-17.345L829.176,192,841.2,225.208,808.25,225Zm23.428-16.285-23.334,15.62,8.975-44Zm-23.512,13.99-1.317-47.16,10.083,4.185Zm-17.782-65.451-26.9-21.452,26.921-9.55,25.644,6.9-25.667,24.106ZM747.3,137.451l10.339,37.973-30.277-4.155Zm34.749,61.377-12.377-1.557-10.769-20.334Zm-12.913-1.5-17.465,3.854,6.39-24.766Zm.522.446L782.2,199.35l-23.622,21.42ZM804.9,207.815,780.97,243.377,783,199.522Zm37.093,17.717,3.626-3.89-.427,11.495Zm7.353,11.293-3.494-2.386,3.906-4.261Zm.444-7.422-4.126,4.5.435-11.7Zm-4.1-8.731a.355.355,0,0,0-.148.317l-3.843,4.122-11.91-32.894L859.9,211.441Zm15.018-9.755-.09.058-9.941-48.627,14.3,34.02a.355.355,0,0,0-.023.044Zm5.239-15.166,10.113-21.339-.891,11.8a.358.358,0,0,0-.131.329l.709,3.915Zm9.744-9.8.941-12.469,12.924,6.428Zm14.934-5.785a.361.361,0,0,0-.018-.331l.756-2.084-.769,7.964-2.086-1.258ZM901.264,178v2.186L891.1,185.677l.912-9.452ZM886.852,167.4l5.777.192-1.2,8.158a.366.366,0,0,0,.044.224l-1.33,3.668-13.076-6.5Zm-7.843.757a.383.383,0,0,0-.143.137l-2.633,4.367L854.92,157.766l35.593,4.159Zm5.68-36.11a.366.366,0,0,0,.135,0c.01,0,.018-.01.028-.014l14.927,8.384L855.22,156.678Zm15.237,8.848-8.508,20.56c-.015.006-.033,0-.047.009l-.092.05-36.24-4.235Zm12.387,8.9,3.013,1.536-1.639,6.4-6.1,1.821a.37.37,0,0,0-.151.088l-3.155,3.019-12.32-1.2,8.477-20.484Zm-22.765-27.424,2.048-.679,8.064,18.088-14.488-8.137ZM874.8,119.91l2.784.77.629,5.39-22,12.568,9.672-25.063,8.8,6.279a.365.365,0,0,0,.118.056Zm-18.744-7.679,9.149,1.136-10.749,11.946,1.6-13.083Zm-4.674,17.815,2.875-3.569a.377.377,0,0,0,.08-.189l.013-.11,10.744-11.94-9.341,24.2-4.372-8.394Zm1.954,16.217,2.74-6.923a.367.367,0,0,0,.009-.054l22.191-12.677.035.3a.375.375,0,0,0,.139.25l5.793,4.6-29.958,25.042Zm.727,11.514,21.983,15.359c0,.024.024.043.032.067L865.323,195.9l-15.038-35.772Zm-4.5,2.227a.367.367,0,0,0,.166.211l10.378,50.766L829.6,191.5l15.2-49.392Zm-4.972-19.526-8.58-5.974h9.68Zm-27.833-20.135v4.268a.375.375,0,0,0,.353.374l6.938.412,10.584,8.878-19.874,27.361-.639-44.825,2.639,3.533Zm-3.354-4.888-23.966-6.445,22.7-.539Zm13.374-15.1-3.574,7.313-10.607.163L804.605,84.68,823.338,96.2a.365.365,0,0,0,.067.16Zm-6.19-21.415c.012.023.037.033.054.052l2.683,16.43-15.234-14.7L820.567,78.9l.021.038Zm10.047,12.112-.709,5.68-5.687-.906,6.729-8.74-.2,3.737a.366.366,0,0,0-.137.23Zm4.063,2.238-3.425-2.462.223-4.254a.376.376,0,0,0,.09-.131l11.1-4.027-5.919,8.116a.359.359,0,0,0-.266.143l-1.8,2.614Zm9.994-6.692-5.2,4.708-2.186-.66,5.9-8.1Zm-1.452-5.332-6.181-9.189,8.1,4.948Zm-7.017-9.537,6.758,10.048-11.188,4.06,4.429-14.108ZM830.635,86.7l-6.788,8.818-2.621-16.054,5.866,6.971.01.1a.359.359,0,0,0,.394.337l3.14-.173ZM823.11,74.98l3,1.512.892,9.062-5.69-6.761,1.795-3.813Zm-3.243,2.647-10.6-7.418,5.842-3.535.39,2.936a.389.389,0,0,0,.043.131l4.325,7.886ZM808.136,57.144l6.545,8.376L804.7,60.263l3.44-3.119Zm-4.951,10.6,1.264-7.049,10.466,5.509-5.992,3.626Zm5.942,2.972,11.05,7.733-12.211,1.779Zm-1.479,10.266,14.216,13.721L804.648,84.119ZM799.6,79.321l1.563-.244,2.422,4.749-6.209-.266,2.223-4.239Zm-29.76,1.407,3.026-2.413,3.664.2,7.608,5.066a.378.378,0,0,0,.192.063l12.1.506-8.8,24.123L769.814,83.222c0-.022.023-.037.023-.06V80.728Zm-11.915,4.163a.393.393,0,0,0,.178-.015l6.17-2.046,2.268.989a.4.4,0,0,0,.192.029l2.364-.268-8.825,34-9.715-33.872,7.368,1.183Zm-5.137-7.06.556,1.385-2.71,1.312a.375.375,0,0,0-.2.242l-.631,2.4a.368.368,0,0,0-.006.113l-23.459,23.432-6.589-39.881,7.113,3.824,25.925,7.174Zm-129.218,4.3,0,0-.012-.009.727-15.227L664.3,82.407ZM622.785,82l-9.846-.145,5.772-7.038ZM633.19,65.334a.381.381,0,0,0,.176-.08l.017-.014,36.677,3.536-43.23-2.343,6.361-1.1Zm48.04,4.578L665.614,82.38,625.6,66.868l55.429,3Zm-15.954,13-12.114,26.864a.186.186,0,0,0-.022.038v.008L623.93,82.634l41.347.279Zm-.1,1.427-3.821,27.992-7.646-2.56Zm.705-1.462,28.586-4.989L661.92,111.928Zm.692-.628,15.273-12.195,12.428,7.36ZM695.4,78.067l30.333,29.094L692.86,121.993Zm.315-.39,23.508-10.965,6.58,39.823ZM638.147,61.289l37.674,7.54-41.9-4.04Zm-14.406,6.365-.662,13.853-3.969-7Zm-6.1,7.678-4.953,6.038V77.747l4.953-2.415Zm5.048,12.445.483,6.138-5.633-6.138Zm-5.747.089,5.916,6.447-8.874,1.051Zm-.428-.3.007.008-2.455,6.224,1.192-8.9,1.257,2.666ZM607.223,88.9l7.593-4.477-1.475,11.012-.307.036L607.223,88.9ZM623.834,94.5a.369.369,0,0,0-.128-.163l-.486-6.19,21.8,25.343-20-15.305c0-.023.01-.044,0-.066L623.834,94.5Zm9.531,32.615,6,2.286-17.048,7.41,10.152-9.055Zm.195-.461-.154-4.238,5.886,6.421Zm-.415-5.393h0l-7.949-22.316,21.138,16.177-13.188,6.139Zm-8.569-22.566,7.652,21.485-14.092-18.455,6.44-3.03Zm-5.315,16.431L613.565,101.9h3.9Zm-6.123-12.953,5.91,13.722-10.132-7.7Zm6.968,14.6a.376.376,0,0,0-.127-.174l-.015-.011-1.918-14.159,14.378,18.829-10.522.584-1.8-5.068Zm8.556,13.707-7.586,6.767v-1.334Zm11.424-1.52-6.67-7.277,13.017-6.06v4.918l-6.347,8.419Zm6.676-14.22-23.486-27.3c0-.006.007-.009.007-.015l.332-4.4,29.18,27.159Zm6.791-3.854.155.144a.249.249,0,1,0,.34-.365l-.131-.122,8.382,5.079-9.57,2.5.824-7.24Zm8.734,4.143-6.868-4.161,5.8,1.943c0,.006,0,.013,0,.019Zm-.173-2.582,32.774-34.272-2.525,43.753Zm31.022,9.967,32.7-14.758-7.281,40.725Zm25.528,27.28,6.933,18.8-9.471-15.641Zm8.683,22.075,29.9,4.1-29.175,17.667Zm.829,22.3,29.414-17.812-6.482,25.122-11.146,10.248Zm13.329,19.363,13.1,8.145a.364.364,0,0,0,.057.152l.5.668,9.928,17.653Zm25.09,28.314h0l-9.332-16.571,11.686,15.473Zm-11.448-20.6L751.619,201.7l17.449-3.851-11.36,23.576Zm3.108.6,24.235-21.975L780.464,243.5Zm22.75,22.7s0-.009,0-.013l18.739-4.112.08.1,5.043,19.4-26.471-11.2L781,244.445Zm32.441,13.5,5.213-6.316a.376.376,0,0,0,.324-.2l.046-.088,11.424-5.542-11.7,18.156Zm13.439,6.558,13.363-3.977-5.653,8.38Zm27.542,10.634a.376.376,0,0,0-.307-.212l-3.784-.313a.364.364,0,0,0-.391.266l-.926,3.072-1.963-3.621,4.217-1.943h5.314l2.656,2.6-.595,8.971Zm4.493,10.476,13.49,12.192-11.642,2.382-13.052-3.033Zm-10.981,22.016,17.474,4.987,3.061,13.428-7.436.69ZM877,339.6h23.445l-27.681,27.132Zm-4.446,28.477,14.689,9.289L867.2,402.376Zm-5.591,35.809.081-.518,20.474-25.55,5.722,18.855a.362.362,0,0,0-.035.068l-24.156,10.219ZM874.129,441l-8.7-3.607-.487-25.1h2.9A.376.376,0,0,0,868.2,412l.837-3.816,11.56,20.766a.364.364,0,0,0-.016.147l-6.92,7.32-.11.024a.375.375,0,0,0-.287.443Zm7.635-6.36-7.233,1.588,6.17-6.526ZM890.5,417l-9.573,11.508L869.37,407.751,884.9,412.7a.367.367,0,0,0,.112.144Zm.227-9.079-5.681,4.3-15.48-4.935,23.62-9.992v4.1Zm3.76-11.377,5.51-3.721v4.059Zm18.685-6.908-11.135,1.953,12.207-7.1Zm1.077-6.116-24.4-5.952,22.815.51Zm7.417-4.221-8.336-1.778,3.338-12.37,20.427-4.64Zm15.817-19.756-22.506-11.191,3.428-20.688,18.19,26.666a.364.364,0,0,0-.019.146Zm18.164-11.984-7.5.366,15.661-13.714ZM966.492,323l7.185-16.472,1.692,4.732Z" transform="translate(-72.841 0)" fill="#7f1084"/><path d="M868.963,249.167a.374.374,0,0,0-.225-.4L847.8,239.979a.383.383,0,0,0-.179-.028l-5.929.523a.406.406,0,0,0-.1.024l-7.062,2.719a.375.375,0,0,0,.085.722l7.062.94a.381.381,0,0,0,.226-.041l1.64-.872,10.085,2.548c3.319,3.91,3.674,3.91,3.865,3.91.383,0,10.033-.846,11.133-.941A.375.375,0,0,0,868.963,249.167Zm-14.907-3.27a.36.36,0,0,0-.128-.08l-.151-.038-4.7-4.449,9.4,3.944Zm-10.5-2.7-1.313-2.02,4.412-.39-3.094,2.41Zm4.016-2.491.026,0,.18.076,5.008,4.746-8.609-2.175Zm-5.914,3.411-5.485-.73,5.527-2.128,1.369,2.107Zm12.811,2.224,4.77-.672-1.8,3.9A42.644,42.644,0,0,1,854.469,246.343Zm3.488,3.3,1.774-3.845,7.319,3.07C863.549,249.173,859.344,249.535,857.956,249.643Z" transform="translate(-72.841 0)" fill="#7f1084"/><path d="M873.132,255.025a.372.372,0,0,0,.073-.007l9.459-1.881a.375.375,0,0,0,.216-.606l-1.64-1.987a.372.372,0,0,0-.267-.136l-12.359-.732a.344.344,0,0,0-.364.219.377.377,0,0,0,.075.419l4.54,4.6A.373.373,0,0,0,873.132,255.025Zm8.771-2.5-6.534,1.3,5.4-2.672Zm-2.132-1.437-6.285,3.11-.228.045-3.712-3.761Z" transform="translate(-72.841 0)" fill="#7f1084"/><path d="M857.872,252.5h-2.649a.374.374,0,0,0-.354.5l.631,1.778a.374.374,0,0,0,.354.25h3.153a.375.375,0,0,0,.316-.577l-1.135-1.778A.377.377,0,0,0,857.872,252.5Zm-.8.75-1,.883-.313-.883Zm-.411,1.028,1.067-.94.6.94Z" transform="translate(-72.841 0)" fill="#7f1084"/><path d="M868.358,255.362a.372.372,0,0,0,.233.082.4.4,0,0,0,.076-.008l2.018-.418a.375.375,0,0,0,.271-.508l-.516-1.275a.366.366,0,0,0-.394-.231l-3.142.386a.374.374,0,0,0-.187.665Zm1.5-1.579.24.592-1.405.291-.8-.641Z" transform="translate(-72.841 0)" fill="#7f1084"/><path d="M890.452,251.98l-5.865.832a.375.375,0,0,0-.262.576l1.23,1.886a.377.377,0,0,0,.314.17l.033,0,4.635-.418a.374.374,0,0,0,.342-.373v-2.3a.375.375,0,0,0-.129-.283A.371.371,0,0,0,890.452,251.98Zm-.322,2.32-3.867-.968,3.867-.548Zm-4.755-.676,3.269.819-2.583.233Z" transform="translate(-72.841 0)" fill="#7f1084"/><path d="M883.34,439l0-2.611a.376.376,0,0,0-.133-.287.392.392,0,0,0-.3-.084l-4.919.837a.377.377,0,0,0-.262.183.37.37,0,0,0-.027.317l.8,2.18-3.243,3.386a.376.376,0,0,0-.092.358l.457,1.682a.375.375,0,0,0,.315.273l12.407,1.56.047,0a.383.383,0,0,0,.157-.034l3.4-1.568a.377.377,0,0,0,.217-.315.373.373,0,0,0-.172-.341Zm-4.276,1.03,8.158,5.865-10.768-1.353,2.442-4.337Zm.283-.412,3.247-2.607,0,2.193a.375.375,0,0,0,.173.316l.241.154,4.206,5.6Zm2.515-2.662-2.71,2.176-.594-1.614Zm-4.359,4.7-1.348,2.394-.209-.768Zm10.887,4.349-4.18-5.563,6.8,4.353Z" transform="translate(-72.841 0)" fill="#7f1084"/><path d="M916.643,157.676a.371.371,0,0,0-.412-.018l-2.743,1.645a.372.372,0,0,0-.139.145l-6.243,11.686a.376.376,0,0,0,.271.547L914,172.75l1.521,3.044a.375.375,0,0,0,.438.192l4.483-1.29,3.363,1.884a.381.381,0,0,0,.184.048.386.386,0,0,0,.088-.011l2.271-.549a.374.374,0,0,0,.287-.364v-3.215a.376.376,0,0,0-.136-.289l-1.889-1.565-.822-3.6a.373.373,0,0,0-.3-.285l-7.492-1.4-.331-2.332,1.12-4.951A.376.376,0,0,0,916.643,157.676Zm-8.4,13.384,7.051-4.838L914.076,172Zm6.442,1.384,8.231-4.749-2.552,6.243-4.312,1.241Zm9.36,3.409-2.765-1.548,4.606-1.437v2.541Zm-.136-4.929a.371.371,0,0,0,.126.206l1.571,1.3-4.682,1.461,2.35-5.751Zm-1.366-3.591-7.934,4.578,1.227-5.833Zm-7.62-4.418a.374.374,0,0,0,0,.136l.364,2.572-6.918,4.747,5.6-10.477,1.9-1.141Z" transform="translate(-72.841 0)" fill="#7f1084"/><path d="M14.942,100.041a.368.368,0,0,0,.172-.042l12.423-6.431A.378.378,0,0,0,27.7,93.4l2.144-4.287a.375.375,0,0,0,.007-.32l-2.838-6.379a.371.371,0,0,0-.386-.22l-5.423.628h-.011L9.674,84.488l-5.723-1.65a.377.377,0,0,0-.441.2L1.546,87.1l-1.33.623a.376.376,0,0,0-.2.431L.39,89.667a.373.373,0,0,0,.295.277l1.124.211-.9.688a.376.376,0,0,0-.129.415c.734,2.255,1.041,2.191,1.272,2.138.223,0,1.716.316,3.2.655l-1.209,1.8a.375.375,0,0,0,.19.564l10.594,3.606a.4.4,0,0,0,.121.02Zm14.152-11.1-2.01,4.02L15.869,98.764,26.543,83.2l2.552,5.735ZM21.3,83.57l4.768-.552L15.015,99.125,10.027,85.195,21.3,83.57ZM6.172,94.019a.374.374,0,0,0-.226-.574c-2.582-.6-3.47-.757-3.8-.788a8.952,8.952,0,0,1-.573-1.378l1.362-1.037a.375.375,0,0,0-.158-.667L1.06,89.252l-.246-.983,1.171-.549a.373.373,0,0,0,.178-.177l1.885-3.9L9.5,85.22,14.48,99.113l-9.548-3.25,1.24-1.844Z" transform="translate(0 0)" fill="#7f1084"/><path d="M1015.51,18.433l2.271-8.807a.376.376,0,0,0-.395-.468l-8.576.719a.4.4,0,0,0-.1.022l-8.719,3.263,2.537-2.26a.375.375,0,0,0-.152-.643L998.34,9.181a.34.34,0,0,0-.122-.012l-4.958.337-.136-.875,7.411-.511a.371.371,0,0,0,.154-.045l4.288-2.336a.375.375,0,0,0-.1-.7L980.082,0H961.164a.372.372,0,0,0-.13.023l-7.757,2.853h-13.3a.378.378,0,0,0-.209.063L935.226,6a.367.367,0,0,0-.081.074l-1.551,1.895L930.6,6a.377.377,0,0,0-.206-.062H925.85a.374.374,0,0,0-.319.179L924,8.6l-1.432-1.311a.372.372,0,0,0-.253-.1h-3.026a.375.375,0,0,0-.354.251l-1.084,3.095-3.117-2.543a.369.369,0,0,0-.269-.083L899.334,9.169a.375.375,0,0,0-.336.3l-.684,3.4L894.4,12.05a.381.381,0,0,0-.239.029l-10.089,4.853a.374.374,0,0,0-.031.659l3.921,2.354L870.8,22.833a.377.377,0,0,0-.22.123l-2.521,2.876a.375.375,0,0,0,.188.61l9.664,2.5-5.118,1.263a.375.375,0,0,0-.193.61l4.54,5.212a.365.365,0,0,0,.313.128l19.568-1.609,12.409,6.365,4.99,9.778a.374.374,0,0,0,.255.2l4.895,1.059h-.779a.377.377,0,0,0-.293.141L916.479,54.6a.374.374,0,0,0,.108.562l8.728,4.91c-2.866.625-6.56,1.4-7.03,1.4a.55.55,0,0,0-.378.2c-.358.525.585,3.654,2.8,9.3a.373.373,0,0,0,.2.209l6.568,2.744-2.811,1.433a.375.375,0,0,0-.087.607l9.585,8.985a.406.406,0,0,0,.271.1l4.892-.175L942.747,88a.371.371,0,0,0,.253.1.376.376,0,0,0,.087-.01l5.3-1.259a.377.377,0,0,0,.27-.248l1.993-6.052,3.026-5.752a.376.376,0,0,0,.043-.175V73.114l10.287-1.92a.373.373,0,0,0,.136-.054l12.779-8.3,9.312-.545,15.891-4.4a.374.374,0,0,0,.275-.361v-2.5a.383.383,0,0,0-.038-.166l1.068.323a.376.376,0,0,0,.453-.211l1.513-3.5a.377.377,0,0,0-.123-.451l-2.563-1.882.962-.363a.372.372,0,0,0,.225-.237l.662-2.089a.375.375,0,0,0-.17-.438l-1.052-.605,2.523.291a.355.355,0,0,0,.193-.028l2.933-1.28a.375.375,0,0,0,.119-.6l-2.3-2.381,3.376.651a.357.357,0,0,0,.179-.009l2.932-.876a.375.375,0,0,0,.091-.678l-3.147-1.954,3.885.147a.4.4,0,0,0,.322-.162l1.009-1.46a.376.376,0,0,0-.151-.554l-9.182-4.243-.27-.874,7.722,1.334a.368.368,0,0,0,.415-.238l1.009-2.7a.375.375,0,0,0-.165-.456l-8.136-4.669,3.966-.565a.375.375,0,0,0,.321-.392l-.234-4.332,4.456-.668a.377.377,0,0,0,.308-.277Zm-17.3-8.512,3.3.884-3.516,3.131a.366.366,0,0,0-.117.249L976.8,30.61,960.411,17.262l31.954-8.629.207,1.329a.364.364,0,0,0,.4.316l5.238-.356Zm-2.963,42.8,4.939,1.49-5.254-1.248.314-.242Zm-.088-.781a.377.377,0,0,0-.218.069l-1.089.841a.366.366,0,0,0-.125.2l-16.671,8.994V31.358L1001.191,44.9l-6.036,7.042Zm-68.7-22.434,19.427,12.347-22.5,10.05,3.07-22.4ZM976.3,30.845,946.943,41.432l13.006-23.9ZM953.765,3.559l37.643,4.814-31.4,8.478ZM959.53,17,927.281,28.46,953.266,3.674,959.53,17Zm-.189.6L946.316,41.539,926.827,29.152Zm-35.932,34.84L945.1,42.753,926.449,59.8,923.4,52.454l.006-.011Zm22.842-10.066,6.738,29.984L926.8,60.155l19.448-17.778Zm30.3-11.091V62l-29.6-20.042ZM961.23.752,980.007.745l23.709,4.828L1000.4,7.378l-7.737.533a.366.366,0,0,0-.209.092l-37.8-4.834L961.23.752ZM919.558,7.942h2.615l1.659,1.52a.369.369,0,0,0,.3.095.373.373,0,0,0,.268-.175l1.655-2.7h4.219l3.186,2.095a.377.377,0,0,0,.5-.076l1.729-2.113,4.4-2.961h12.5L926.341,28.666l-7.968-17.359c0-.006.009-.01.011-.017l1.173-3.349ZM885.02,17.306l9.348-4.5,4.163.874a.393.393,0,0,0,.283-.054.375.375,0,0,0,.161-.239l.7-3.5,14.7-1.222,3.414,2.785a.373.373,0,0,0,.124.058l7.9,17.209-36.475-8.758a.367.367,0,0,0-.126-.143l-4.2-2.519Zm12.248,16.525a.372.372,0,0,0-.086-.017L889.53,20.527l35.5,8.522-27.687,4.82Zm-23.7-3.043,5.961-1.471a.375.375,0,0,0,0-.728l-10.51-2.722,2.032-2.318,17.9-3.013,7.653,13.292L877.58,35.394l-4.012-4.605Zm41.438,19.4-4.964-9.728a.381.381,0,0,0-.163-.163l-11.8-6.054,27.888-4.855-3.085,22.5-7.875-1.7Zm2.334,4.534,1.629-2.03h3.993l2.808,6.773Zm4.01,15.82a58.118,58.118,0,0,1-2.8-8.35c1.469-.188,7.188-1.448,7.884-1.6.023,0,.037-.024.057-.033L952.313,72.6,928.62,73.622a.359.359,0,0,0-.1-.081l-7.169-3Zm4.139,5.233,3.056-1.559a.363.363,0,0,0,.106-.1l23.971-1.038L939.506,84.132c-.012,0-.021-.013-.033-.013h-.014l-4.889.175-9.081-8.514Zm24.472,4.458-1.951,5.91-4.9,1.164-3.163-2.895,13.025-10.971V74.51ZM963.8,70.471l-10.287,1.919L946.78,42.449l29.455,19.942Zm37.853-13.224-15.537,4.312-7.943.458,15.793-8.52c.011,0,.019.014.031.017l7.657,1.817Zm2.1-10.732-.517,1.629-1.438.543a.376.376,0,0,0-.089.653l2.88,2.114-1.262,2.923-7.627-2.3,5.852-6.829,2.2,1.267Zm10.83-9.507-.639.924-5.095-.192h-.014a.375.375,0,0,0-.2.693l3.644,2.261-2.046.611-4.449-.858a.37.37,0,0,0-.4.189.376.376,0,0,0,.061.439l2.746,2.846-2.346,1.024-4.224-.488a.334.334,0,0,0-.142.031l-23.724-13.31H1005l.455,1.473a.377.377,0,0,0,.2.23l8.929,4.126Zm-.4-7.18-.788,2.11-8.019-1.385a.367.367,0,0,0-.345.121l0,0h-27.5l20.664-16.106,7,9.807a.375.375,0,0,0,.182.394l8.8,5.054Zm-8.6-5.761-6.641-9.3,11.042,4.426.228,4.216-4.63.66Zm4.714-5.381c-.038.006-.061.037-.094.054l-11.1-4.447,9.815-3.673,8-.67-2.076,8.055Z" transform="translate(-72.841 0)" fill="#7f1084"/><path d="M818.523,8.217l14.884,5.212a.315.315,0,0,0,.149.021L849,12.4l-7.461,2.463h-8.011a.375.375,0,0,0-.255.65l5.045,4.672a.378.378,0,0,0,.255.1h4.492l-2.056,1.048h-10a.375.375,0,0,0-.318.177l-1.01,1.617a.376.376,0,0,0,.228.563l2.081.519H830a.374.374,0,0,0-.3.146l-1.32,1.712-4.217,1.5-2.8,1.3L805.326,26.9a.374.374,0,0,0-.421.372V29.25a.374.374,0,0,0,.233.347l5.927,2.426a.376.376,0,0,0,.293,0l2.481-1.094,3.193,1.707.359,3.574a.374.374,0,0,0,.226.308l3.783,1.618a.383.383,0,0,0,.147.03h26.485a.375.375,0,0,0,.26-.1l4.036-3.864a.375.375,0,0,0-.2-.641L839.015,31.4a.417.417,0,0,0-.135,0l-7,1.422-7.888-1.174.566-1.209,20.475.519a39.672,39.672,0,0,0,4.71,1,.336.336,0,0,0,.121,0c.513-.091,5.875-1.876,6.484-2.079a.375.375,0,0,0,.173-.593L854.5,26.8l4.248-3.19,2.39.085a.37.37,0,0,0,.282-.113l2.019-2.067a.383.383,0,0,0,.079-.12,13.836,13.836,0,0,1,1.272-2.562c.6-.085,2.726-.713,3.659-.994a.376.376,0,0,0,.267-.359V16.47l3.61.482a.372.372,0,0,0,.3-.095l2.206-2.01,16.318-4.828a.374.374,0,0,0,.229-.528l-.5-.988a.376.376,0,0,0-.324-.206l-4.771-.136,2.064-1,8.736.266a.361.361,0,0,0,.188-.044L899.8,5.769a.375.375,0,0,0,.046-.633l-3.036-2.247a.376.376,0,0,0-.2-.072L845.8,0a.32.32,0,0,0-.238.069l-5.592,4-6.776.01L818.563,7.5a.375.375,0,0,0-.039.719Zm15.641,4.44,5.964-7.846a.368.368,0,0,0,.178-.057l5.447-3.9,5.721,10.617-17.31,1.183Zm18.379-.941,14.419-9.707,1.1,13.7Zm-.5-.263h-.011L846.279.781,866.25,1.887l-14.21,9.566Zm-21.856,13.5h4.86a.375.375,0,0,0,.091-.739l-4.544-1.133.626-1H841.1a.367.367,0,0,0,.17-.041l3.134-1.6.462,9.775-.255-.007-15.436-3.946,1.01-1.309Zm-5.734,3.3,4.288-1.525c.026-.009.043-.034.066-.048l13.561,3.467-18.031-.466a.448.448,0,0,0-.213.06l-1.792-.5Zm-10.418,1.921a.373.373,0,0,0-.328-.012l-2.5,1.1L805.655,29V27.7l15,1.836-3.184,2.481Zm3.733,2.241,3.591-2.8.021,0a.369.369,0,0,0,.2-.032l.049-.023,2.218.62-.749,1.6a.376.376,0,0,0,.01.337l.007.008-1.684,5.2-3.317-1.419-.351-3.493Zm14.069,1.156a.414.414,0,0,0,.13,0l.176-.036L845.8,37.413H823.008l8.7-3.857.123.018Zm7.126-1.426,12.308,2.023-3.385,3.241h-.256l-14.42-4.1,5.753-1.169Zm-8.173,1.27-8.829,3.913,1.615-4.986Zm24.81-4.083c-2.2.73-5.281,1.738-5.811,1.869a41.536,41.536,0,0,1-4.418-.928l-.466-9.862,8.694,6.364a.368.368,0,0,0,.074.192Zm-1.744-2.989-8.866-6.49c0-.013.007-.025,0-.038a.374.374,0,0,0-.364-.287H838.72l-4.234-3.922H841.6a.392.392,0,0,0,.117-.019l10.178-3.36,6.34,10.825-4.382,3.292Zm10.828-8.255c-.219,0-.624,0-1.832,2.95L861,22.937l-2.3-.082-6.234-10.643,15.5,3.991V17.2C866.485,17.64,864.912,18.078,864.682,18.09Zm34.244-12.7-2.416,1.29-8.728-.266a.315.315,0,0,0-.175.037l-3.53,1.707a.375.375,0,0,0,.152.713l6.083.173.2.388-15.969,4.726a.369.369,0,0,0-.146.082l-2.141,1.95-3.69-.493-1.1-13.739,29,1.606,2.469,1.827Zm-65.648-.562h6.213l-5.969,7.852L819.986,7.935l13.291-3.111Z" transform="translate(-72.841 0)" fill="#7f1084"/><path d="M846.865,108.4,848,105.736a.375.375,0,0,0-.345-.522H844.9L843.472,101a.38.38,0,0,0-.147-.192l-8.136-5.416a.374.374,0,0,0-.208-.062H832.9a.376.376,0,0,0-.375.365l-.181,6.62-2.945.79a.374.374,0,0,0-.252.226l-1.324,3.372a.374.374,0,0,0,.28.506l3.1.57v2.669a.375.375,0,0,0,.309.369l4.351.784a.39.39,0,0,0,.066.006.376.376,0,0,0,.334-.2l3-5.858,3.614,3a.376.376,0,0,0,.239.086h3.4A.375.375,0,0,0,846.865,108.4Zm-3.614-.522-3.869-3.208a.385.385,0,0,0-.314-.078.374.374,0,0,0-.259.2l-3.089,6.027-3.769-.68v-2.668a.376.376,0,0,0-.307-.369l-2.958-.544,1.089-2.772,3.032-.813a.375.375,0,0,0,.278-.353l.179-6.535h1.6l7.935,5.282,1.472,4.349a.375.375,0,0,0,.355.255h2.46l-.816,1.911h-3.021Z" transform="translate(-72.841 0)" fill="#7f1084"/><path d="M842.109,110.229a.38.38,0,0,0-.4.014l-4.008,2.722a.376.376,0,0,0-.149.414l.6,2.091a.374.374,0,0,0,.235.25.37.37,0,0,0,.125.021.378.378,0,0,0,.215-.067l5.3-3.712a.375.375,0,0,0-.026-.632l-1.892-1.1Zm-3.381,4.528-.38-1.325L841.937,111l1.181.688-4.389,3.074Z" transform="translate(-72.841 0)" fill="#7f1084"/><path d="M848.638,117.8a.372.372,0,0,0,.154.033.378.378,0,0,0,.22-.071l1.45-1.049a.374.374,0,0,0,.155-.3V112.96a.375.375,0,0,0-.375-.375H848.35a.375.375,0,0,0-.373.412l.442,4.5A.374.374,0,0,0,848.638,117.8Zm1.229-4.467v2.885l-.766.554-.338-3.438h1.1Z" transform="translate(-72.841 0)" fill="#7f1084"/><path d="M797.172,69.85,796.086,72.7l-2.149,1.188a.375.375,0,0,0-.193.328v1.569a.374.374,0,0,0,.275.361l10.216,2.823a.383.383,0,0,0,.1.014.376.376,0,0,0,.369-.308l.945-5.176a.375.375,0,0,0-.217-.41l-7.757-3.451a.375.375,0,0,0-.5.209Zm.56.638,7.126,3.17-.818,4.482L794.493,75.5V74.439l2.076-1.147a.378.378,0,0,0,.169-.194l.993-2.609Z" transform="translate(-57.479 0)" fill="#7f1084"/><path d="M804.465,54.037l-4.39-7.1V40.151a.375.375,0,0,0-.4-.374l-8.482.6a.377.377,0,0,0-.267.141.372.372,0,0,0-.077.291l.752,4.811h-5.426a.374.374,0,0,0-.366.295l-.946,4.345a.375.375,0,0,0,.109.354l6.788,6.369,4.351,4.844a.38.38,0,0,0,.264.124h.016a.374.374,0,0,0,.258-.1l7.757-7.34a.376.376,0,0,0,.062-.47Zm-8.1,6.519L792.38,46.292l7.009.96,0,.007-3.03,13.3Zm2.962-20v6.184l-6.94-.95-.734-4.691,7.674-.543ZM785.64,50.21l.836-3.842h5.406l3.9,13.97-3.488-3.882Zm11.225,10.4,2.9-12.741,3.9,6.306Z" transform="translate(-57.277 0)" fill="#7f1084"/><path d="M807.192,54.567l3.595,1.8a.374.374,0,0,0,.538-.275l.9-5.538,3.667-.139a.374.374,0,0,0,.333-.235l3.972-9.887a.375.375,0,0,0-.348-.515H806.415a.376.376,0,0,0-.374.4l.945,14.081a.372.372,0,0,0,.206.31Zm3.474.9-2.946-1.474-.836-12.462,4.672,8.551c-.006.018-.023.028-.026.047l-.864,5.338Zm-3.761-14.94H819.23l-7.292,9.211Zm8.712,9.146-3.082.116,6.162-7.783Z" transform="translate(-58.501 0)" fill="#7f1084"/><path d="M811.712,38.134a.375.375,0,0,0,.347-.232l1.419-3.445a.375.375,0,0,0-.291-.514l-5.013-.754a.362.362,0,0,0-.23.039l-2.839,1.5a.375.375,0,0,0,.029.678l6.433,2.7A.376.376,0,0,0,811.712,38.134Zm-5.557-3.113,2.029-1.071,4.417.664-1.093,2.653Z" transform="translate(-58.096 0)" fill="#7f1084"/><path d="M776.335,41.127a.376.376,0,0,0-.35.239l-1.135,2.918a.376.376,0,0,0,.19.476l6.242,2.921a.378.378,0,0,0,.159.035.376.376,0,0,0,.368-.3l1.136-5.839a.376.376,0,0,0-.368-.446Zm4.831,5.671-5.489-2.569.915-2.352h5.531Z" transform="translate(-55.899 0)" fill="#7f1084"/><path d="M789.94,71.4l.759-3.147a.375.375,0,0,0-.186-.418L782.9,63.714l-4.5-16.473a.373.373,0,0,0-.286-.269l-5.864-1.2a.372.372,0,0,0-.442.29l-.568,2.7a.377.377,0,0,0,.032.246l1.881,3.72,1.57,3.829-3.045,1.61-1.41-6.557a.371.371,0,0,0-.087-.171l-3.216-3.6a.376.376,0,0,0-.227-.121l-9.3-1.325-1.606-2.2a.374.374,0,0,0-.465-.116l-3.594,1.724a.355.355,0,0,0-.1.065l-8.892,8.389a.376.376,0,0,0-.117.272v4.045a.373.373,0,0,0,.2.333l3.1,1.6-1.573.727a.375.375,0,0,0-.218.341v3.295a.375.375,0,0,0,.406.374l8.788-.74,5.138,2.513L746.79,68.092a.375.375,0,0,0-.341.373v2.4a.375.375,0,0,0,.24.35l7.074,2.727,2.582,4.017a.374.374,0,0,0,.315.172h4.919a.361.361,0,0,0,.124-.021l9.778-3.429,3.67-.654,7.271,3.317a.371.371,0,0,0,.155.034h4.351a.376.376,0,0,0,.335-.206l1.7-3.37a.375.375,0,0,0-.124-.479l-2.4-1.637h3.136a.375.375,0,0,0,.364-.287ZM775.45,57.325l6.73,6.6.03.11-6.76,8.853V57.325Zm-1.617-4.907L772,48.789l.464-2.205,5.273,1.078,4.181,15.31-6.371-6.252a.347.347,0,0,0,0-.131l-1.712-4.171Zm1.117,4.868V73.257L760.38,67.2l10.966-8.114a.36.36,0,0,0,.243-.028l3.361-1.776Zm-5.4-5.419L771,58.591l-17.222,5.168L757.4,47.146l9.1,1.3,3.059,3.425Zm-26.14,6.482V54.695l8.731-8.238,3.261-1.563,1.429,1.953L746.83,60.107l-3.415-1.758Zm1.514,3.465,2.053-.948a.376.376,0,0,0,.218-.333.349.349,0,0,0-.017-.064L756.741,47.8l-3.475,15.956-8.338.7V61.814Zm9.375,2.308,15.811-4.744L759.962,66.89,754.3,64.122Zm-7.1,4.685,11.928-1.1-5.1,5.531L747.2,70.608Zm7.213,4.757,4.9-5.32-2.688,8.764Zm16.88.393-9.776,3.423h-4.48l3-9.779,14.079,5.849Zm13.932-3.021a.375.375,0,0,0-.211.685l3.134,2.137-1.448,2.87H782.66l-7-3.192,6.907-9.045,7.332,3.966-.621,2.58h-4.057Z" transform="translate(-55.784 0)" fill="#7f1084"/><path d="M731.253,61.368a.374.374,0,0,0,.458.027l8.513-5.8a.371.371,0,0,0,.146-.194l1.838-5.672,7.211-2.781a.374.374,0,0,0,.205-.19l1.892-4.046a.376.376,0,0,0-.214-.513l-17.216-6.149a.379.379,0,0,0-.239,0l-6.433,2.047a.375.375,0,0,0-.2.569l1.951,2.855-6.511,11.936a.376.376,0,0,0,.082.462l8.514,7.453Zm.275-.756-7.58-6.635,15.164,1.468-7.585,5.167ZM739.711,55l-15.132-1.465,16.815-3.729L739.711,55Zm9.3-8.7-7.2,2.778-11.288-7.287,20.14.98ZM728.12,38.654l5.832-1.855,15.1,5.4L729.9,41.263l-1.783-2.609Zm1.68,3.272,11.461,7.4-17.63,3.909Z" transform="translate(-53.229 0)" fill="#7f1084"/><path d="M739.953,33.848a.376.376,0,0,0,.41.054l7.412-3.642-2.542,3.687a.375.375,0,0,0,.309.588h3.547a.378.378,0,0,0,.271-.115l6.054-6.292a.375.375,0,0,0,.078-.4l-1.135-2.846a.377.377,0,0,0-.349-.236h-8.324a.374.374,0,0,0-.241.088l-5.81,4.9-2.674.878a.374.374,0,0,0-.128.64l3.122,2.7Zm-.017-3.527a.379.379,0,0,0,.124-.069l5.76-4.854h7.934l.951,2.385-5.775,6h-2.674l2.952-4.281a.375.375,0,0,0-.474-.55l-8.479,4.165-2.434-2.1,2.114-.693Z" transform="translate(-53.717 0)" fill="#7f1084"/><path d="M756.563,24.785l4.584,1.209,8.7,1.2a.3.3,0,0,0,.051,0,.374.374,0,0,0,.354-.249l2.459-6.892a.376.376,0,0,0-.053-.351.343.343,0,0,0-.321-.149l-10.782.6a.374.374,0,0,0-.32.53l.757,1.647a.375.375,0,0,0,.341.219h2.126l-2.9.888-3.69-.731a.378.378,0,0,0-.36.127l-1.135,1.348a.375.375,0,0,0,.191.6Zm1.375-1.3,3.565.706a.4.4,0,0,0,.183-.01l5.392-1.648a.375.375,0,0,0-.109-.733h-4.395l-.427-.929,9.669-.538-2.167,6.072-8.355-1.146-3.967-1.049.611-.726Z" transform="translate(-55.014 0)" fill="#7f1084"/><path d="M769.175,29.453a.37.37,0,0,0,.031.332l2.1,3.4h-3.768l-4.644-2.65a.357.357,0,0,0-.108-.042l-6.053-1.273a.373.373,0,0,0-.33.091l-6.622,6.067a.375.375,0,0,0,.218.649l7.945.751a.373.373,0,0,0,.311-.118l1.916-2.069,3.274,1.105-4.1,1.716a.375.375,0,0,0,.075.714l7.188,1.349a.334.334,0,0,0,.069.007.375.375,0,0,0,.135-.025l6.935-2.675h6.363a.377.377,0,0,0,.317-.175l2.459-3.9a.375.375,0,0,0-.243-.567l-3.689-.749a.373.373,0,0,0-.3.069l-2.087,1.589-1.025-1.162-.737-3.795a.379.379,0,0,0-.173-.249.373.373,0,0,0-.3-.04l-4.919,1.423a.376.376,0,0,0-.245.226Zm4.979-.813.679,3.492a.377.377,0,0,0,.087.177l1.324,1.5a.375.375,0,0,0,.509.05l2.229-1.7,2.99.607-2.059,3.261h-6.226a.375.375,0,0,0-.135.025l-6.9,2.661-5.854-1.1L764.656,36a.375.375,0,0,0-.024-.7l-4.446-1.5a.381.381,0,0,0-.4.1l-1.955,2.111-6.92-.654,5.857-5.367,5.807,1.222,4.679,2.671a.365.365,0,0,0,.186.05h4.54a.375.375,0,0,0,.318-.572l-2.2-3.551,4.05-1.171Z" transform="translate(-55.466 0)" fill="#7f1084"/><path d="M783.209,36.778a.352.352,0,0,0,.084-.01l3.278-.749a.375.375,0,0,0,.291-.365v-1.5a.375.375,0,0,0-.375-.375h-3.278a.375.375,0,0,0-.375.375V36.4a.376.376,0,0,0,.375.375Zm.375-2.244h2.528v.821l-2.528.577v-1.4Z" transform="translate(-56.248 0)" fill="#7f1084"/><path d="M781.605,26.981a.374.374,0,0,0,.337.211l4.041,0a.375.375,0,0,0,.348-.235l.5-1.248a.374.374,0,0,0-.205-.486l-3.909-1.6a.379.379,0,0,0-.143-.028h-2.019a.374.374,0,0,0-.337.539l1.387,2.847Zm.895-2.636,3.5,1.432-.268.667-3.553,0-1.021-2.1H782.5Z" transform="translate(-56.204 0)" fill="#7f1084"/><path d="M780.983,19.087l4.468.989-2.427,1.372a.375.375,0,0,0,.162.7l9.857.594,2.183,1.539a.377.377,0,0,0,.216.068h2.145a.375.375,0,0,0,.287-.134l1.261-1.5a.375.375,0,0,0-.034-.519L795.7,19.1a.386.386,0,0,0-.131-.077L788.806,16.7l-6.18-.8a.379.379,0,0,0-.367.175l-1.514,2.446a.375.375,0,0,0,.238.563Zm1.786-2.41,5.866.752,6.611,2.274,3.082,2.806-.917,1.091h-1.851l-2.173-1.532A.372.372,0,0,0,793.2,22l-8.7-.523,2.174-1.229a.375.375,0,0,0-.1-.692l-4.907-1.086,1.108-1.792Z" transform="translate(-56.908 0)" fill="#7f1084"/><path d="M804.009,16.932c.973.361,5.842,2.17,6.226,2.26a34.381,34.381,0,0,0,4.568-.678l-3.185,2.3a.375.375,0,0,0,.084.653l8.008,3.1a.384.384,0,0,0,.136.025.369.369,0,0,0,.134-.024c1.975-.756,4.192-1.558,4.466-1.592.258,0,2.74.273,4.245.446a.38.38,0,0,0,.335-.138.373.373,0,0,0,.063-.356,26.382,26.382,0,0,1-.916-3.187h4.6a.371.371,0,0,0,.245-.092l1.766-1.528a.373.373,0,0,0-.07-.614l-3.84-2.02-3.658-3.146a.371.371,0,0,0-.162-.082l-12.36-2.786a.381.381,0,0,0-.285.051l-10.468,6.74a.375.375,0,0,0,.072.667Zm15.838,6.885-7.229-2.8,3.98-2.876a.373.373,0,0,0,.141-.2l9.858-4.851-2.317,9.167c-.674.144-2.957,1-4.433,1.56Zm14.028-5.9-1.245,1.078h-4.779a.481.481,0,0,0-.348.18c-.1.144-.309.433.687,3.439-.931-.105-2.638-.295-3.393-.36l2.283-9.035,3.371,2.886,3.424,1.811Zm-19.2-7.673L826.046,12.8,816.5,17.5a.354.354,0,0,0-.194-.028c-2.617.5-5.618,1.05-5.9.991-.258-.062-3.169-1.132-5.433-1.972Z" transform="translate(-59.339 0)" fill="#7f1084"/><path d="M794.6,14.4l5.8,1.349a.36.36,0,0,0,.085.01.375.375,0,0,0,.356-.491l-.881-2.7a.377.377,0,0,0-.326-.258l-4.919-.4a.351.351,0,0,0-.284.1.373.373,0,0,0-.121.275v1.747a.374.374,0,0,0,.29.365Zm.46-1.705,4.265.347.6,1.826-4.861-1.131V12.695Z" transform="translate(-57.215 0)" fill="#7f1084"/><path d="M805.636,25.015a.379.379,0,0,0,.144.093l5.807,2.07a.378.378,0,0,0,.293-.018l4.162-2.067a.375.375,0,0,0-.12-.708l-4.18-.525-2.3-1.907a.368.368,0,0,0-.151-.075l-7.456-1.8a.371.371,0,0,0-.413.178.375.375,0,0,0,.056.447l4.161,4.313Zm3.392-2.43,2.319,1.922a.379.379,0,0,0,.192.083l3.055.384-2.906,1.444-5.573-1.987-3.205-3.322,6.118,1.477Z" transform="translate(-58.203 0)" fill="#7f1084"/><path d="M800.6,29.235l-2.9-.927a.378.378,0,0,0-.458.208l-.973,2.236-1.265-2.081a.374.374,0,0,0-.235-.171l-3.026-.7a.374.374,0,0,0-.456.314l-.354,2.565-3.714-2.813a.365.365,0,0,0-.318-.064l-2.775.7a.375.375,0,0,0-.232.552l2.271,3.907a.376.376,0,0,0,.285.185l7.319.773,2.558,2.317a.376.376,0,0,0,.252.1h5.171a.375.375,0,0,0,.368-.448l-1.261-6.366a.376.376,0,0,0-.254-.284Zm.689,6.349h-4.569l-2.541-2.3a.385.385,0,0,0-.213-.095l-7.252-.766-1.925-3.312,2.118-.535,4.081,3.092a.382.382,0,0,0,.37.048.373.373,0,0,0,.228-.3l.386-2.793,2.473.572,1.559,2.564a.351.351,0,0,0,.346.18.374.374,0,0,0,.318-.225l1.126-2.59,2.367.757,1.129,5.7Z" transform="translate(-57.124 0)" fill="#7f1084"/><path d="M821.042,27.695h2.018a.375.375,0,0,0,.375-.374l0-1.617a.375.375,0,0,0-.375-.376h-3.721a.375.375,0,0,0-.259.646l1.7,1.617a.376.376,0,0,0,.259.1Zm1.645-1.617v.867h-1.494l-.911-.867Z" transform="translate(-72.841 0)" fill="#7f1084"/><path d="M858.439,49.218a.375.375,0,0,0,.371-.431l-.945-6.3a.375.375,0,0,0-.327-.316l-8.895-1.045a.374.374,0,0,0-.4.27l-2.081,7.341a.375.375,0,0,0,.36.478h11.921Zm-.436-.75H847.67l9.515-5.456Zm-9.131-6.556,7.657.9-9.448,5.418Z" transform="translate(-72.841 0)" fill="#7f1084"/><path d="M884.708,71.437l-2.659-5.825a.372.372,0,0,0-.167-.177l-15.449-8.051-7.757-6.142a.376.376,0,0,0-.19-.079l-3.973-.45a.4.4,0,0,0-.281.084L850.4,53.96l-1.671-2.914a.376.376,0,0,0-.5-.147l-4.625,2.355,1.956-10.639a.375.375,0,0,0-.239-.419l-2.842-1.046a.377.377,0,0,0-.4.092l-4.477,4.682-1.986,2.7a.372.372,0,0,0-.027.4L841.89,60.6l-1.762,1.629-6.261-7.792,2.428-12.863a.372.372,0,0,0-.094-.324.387.387,0,0,0-.316-.118l-9.27,1.05a.377.377,0,0,0-.313.253l-4.157,12.272a.375.375,0,0,0,.057.347l5.077,6.7,1.682,4.148a.375.375,0,0,0,.207.207l9.648,3.9a.414.414,0,0,0,.157.027l13.382-.595,5.894,3.541a.385.385,0,0,0,.116.046l5.469,1.156,4.073,11.7-3.1,2.834a.376.376,0,0,0-.122.26l-.172,3.837h-9.479a.375.375,0,0,0-.372.326l-1.136,8.688a.378.378,0,0,0,.1.3.435.435,0,0,0,.293.121l12.938-.591,5.842,8.665a.375.375,0,0,0,.2.148l19.107,5.842a.381.381,0,0,0,.109.017.375.375,0,0,0,.375-.375V113.7a.373.373,0,0,0-.125-.279l-6.781-6.072,7.508,3.545a.372.372,0,0,0,.347-.014.377.377,0,0,0,.188-.293l.378-4.345a.384.384,0,0,0-.041-.205l-2.648-5.094a.374.374,0,0,0-.148-.153l-6.485-3.668-1.568-5.808,1.917-.7,7.4,7.029a.377.377,0,0,0,.483.029l3.16-2.359,4.664-1.33a.374.374,0,0,0,.2-.58l-2.125-2.944,1.134-1.889a.376.376,0,0,0-.228-.557l-6.742-1.749-1.069-3.109a.373.373,0,0,0-.165-.2L883.105,77.9l-1.485-1.964,3.049-4.12a.373.373,0,0,0,.039-.378Zm-.845-.046-8.672.478,6.332-5.6,2.34,5.126Zm1.248,18.431a.368.368,0,0,0-.12.008l-.116.042-15.14-3.79L890.9,83.621Zm-16-4.17,5.6-4.891,15.042,2.49Zm-4.708-12.1,1.944-15.11L874.1,71.968l-9.7,1.589Zm-34.123-7.8,9.5-2.643-1,6.078Zm17.578-4.893-4.831-.387,6.772-5.235-1.941,5.622Zm.309.475a.229.229,0,0,0,.017-.016l.014-.013c.007-.007.008-.017.014-.024a.236.236,0,0,0,.054-.072L850.2,55.6l1.939,13.11-12.4.551,8.418-7.919Zm4.466,7.249L850.6,54.846l15.037,2.975Zm14.315-10.1,14.223,7.419-6.612,5.853L866.947,58.49Zm7.3,13.96.128,7.581L864.807,74Zm.5.141,5.922,3.383-5.8,4.042-.125-7.425ZM854.587,51.477l3.708.42,6.682,5.284-13.952-2.76,3.562-2.943Zm-6.326.252,1.616,2.819-7.2,5.567.66-5.878Zm-5.44,1.686-6.436-4.559.034-.047,8.282-5.621-1.88,10.227Zm-4.637-7.009,4.275-4.468,2.069.762L837.3,47.6l.879-1.2Zm-1.3,3.415,5.865,4.156a.356.356,0,0,0,.091.2l-.615,5.474-5.341-9.83Zm5.729,11.136.007-.013,4.824.387-8.124,7.643.969-5.886a.367.367,0,0,0,.053-.032l2.271-2.1Zm-3.1,1.709-9.8,2.728L833.5,55.177l6.019,7.49Zm-6.259-9.023L827.14,42.882l8.324-.943ZM826.8,43.3l6.247,10.994-10.064.275L826.8,43.3Zm1.153,18.134a.391.391,0,0,0-.049-.086l-4.759-6.283,9.958-.272L829.36,64.9l-1.405-3.467Zm30.626,10.881-5.6-3.366,12.883-10.667-1.95,15.16Zm6.173,2.242,9.465,5.968-5.664,4.95Zm.675,14.617,2.591-2.37-1.1,13.021-1.731-6.434a.367.367,0,0,0,.061-.178l.181-4.04Zm18.64,8.517-.875,7.9-15.147-4.3,16.022-3.6ZM866.7,100.926l-11.89.543,9.921-7.863,1.969,7.32Zm-11.331-7.354h8.6l-9.594,7.6Zm12.448,8.176,14.818,4.2-9.42,3.8-5.4-8.007Zm10.556,9.624,13.371,2.516v1.572Zm12.675,1.875-17.007-3.2-.122-.037,9.315-3.76,7.814,7Zm1.881-3.259-8.006-3.78,8.314.244-.308,3.536Zm.145-4.041-8.835-.259,6.545-4.146Zm-2.695-4.741-6.66,4.219.832-7.515,5.828,3.3Zm-6.449-4-15.564,3.5L882.4,91.548Zm-1.395-6.479a.374.374,0,0,0-.238.289l-14.955,9.763,1.225-14.476h0l15.473,3.874-1.506.551Zm3.148-.532,6.75-3.212v9.627L885.68,90.2Zm7.25-2.266,2.62,6.834-2.62,1.956v-8.79Zm7.085,5.477-3.522,1,1.83-3.349Zm-1.975-3.125a.363.363,0,0,0-.023.3l-2.078,3.8-2.8-7.3,5.9,1.532Zm-5.774-3.774L886.185,89.4l5.171-5.541Zm-2.312-3.733-14.168-2.345,6.884-1.918,7.284,4.264Zm-7.643-4.684-6.341,1.767,5.027-3.5Zm-1.35-2.53-5.607-3.2,8.316-.458Z" transform="translate(-72.841 0)" fill="#7f1084"/></g></g></g></svg>