<svg xmlns="http://www.w3.org/2000/svg" xmlns:xlink="http://www.w3.org/1999/xlink" width="104.657" height="28.562" viewBox="0 0 104.657 28.562">
  <defs>
    <clipPath id="clip-path">
      <rect id="Rectangle_420" data-name="Rectangle 420" width="104.657" height="28.562" transform="translate(0 0)" fill="none"/>
    </clipPath>
  </defs>
  <g id="Group_1182" data-name="Group 1182" transform="translate(0 0)" clip-path="url(#clip-path)">
    <path id="Path_446" data-name="Path 446" d="M14.281,28.562A14.281,14.281,0,1,0,0,14.281,14.281,14.281,0,0,0,14.281,28.562M5.825,21.527H9.9v-11.3H5.825ZM5.713,6.221A1.93,1.93,0,0,0,7.791,8.158a1.974,1.974,0,0,0,2.214-1.937A1.93,1.93,0,0,0,7.928,4.284,1.974,1.974,0,0,0,5.713,6.221m14.78,15.306h3.943V15.352c0-3.547-1.578-5.123-3.55-5.123s-3.024.656-3.549,1.576V10.229H13.262v11.3h4.075V15.352c0-1.839,1.316-2.1,1.709-2.1s1.447.394,1.447,2.1Z" fill="#fff" fill-rule="evenodd"/>
    <path id="Path_447" data-name="Path 447" d="M38.1,20.781h6.864V19.213H39.97V9.005H38.1Zm9.242,0H49.2v-8.8H47.34Zm.928-10.448a1.1,1.1,0,1,0,0-2.192,1.046,1.046,0,0,0-1.136,1.088,1.05,1.05,0,0,0,1.136,1.1m4.161,10.448h1.856v-6.24a2.979,2.979,0,0,1,2.144-1.184c1.024,0,1.472.592,1.472,2.128v5.3h1.856V15.245c0-2.224-.832-3.488-2.7-3.488a4.118,4.118,0,0,0-2.912,1.456h-.048l-.16-1.232h-1.5Zm10.464,0h1.824V18.509L66.173,16.8l2.384,3.984h2.016l-3.312-5.216,2.976-3.584H68.189l-3.408,4.256h-.064V8.045H62.893ZM75.819,21a5.339,5.339,0,0,0,2.976-.928l-.64-1.184a3.776,3.776,0,0,1-2.1.656,2.644,2.644,0,0,1-2.72-2.672h5.712a4.938,4.938,0,0,0,.08-.944c0-2.5-1.264-4.176-3.584-4.176-2.048,0-4.016,1.776-4.016,4.64,0,2.9,1.888,4.608,4.288,4.608M73.307,15.6a2.406,2.406,0,0,1,2.272-2.384c1.28,0,1.952.864,1.952,2.384ZM84.722,21a3.756,3.756,0,0,0,2.576-1.2h.048l.144.976h1.52V8.045H87.154v3.248l.08,1.456a3.367,3.367,0,0,0-2.369-.992c-1.951,0-3.759,1.776-3.759,4.64,0,2.912,1.408,4.608,3.616,4.608m.447-1.536c-1.375,0-2.159-1.1-2.159-3.1,0-1.888.992-3.072,2.224-3.072a2.721,2.721,0,0,1,1.92.816V18.4a2.559,2.559,0,0,1-1.985,1.072m7.071,1.312H94.1v-8.8H92.24Zm.928-10.448a1.1,1.1,0,1,0,0-2.192,1.046,1.046,0,0,0-1.136,1.088,1.05,1.05,0,0,0,1.136,1.1m4.161,10.448h1.856v-6.24a2.979,2.979,0,0,1,2.144-1.184c1.024,0,1.472.592,1.472,2.128v5.3h1.856V15.245c0-2.224-.832-3.488-2.7-3.488a4.118,4.118,0,0,0-2.912,1.456h-.048l-.16-1.232h-1.5Z" fill="#fff"/>
  </g>
</svg>
