<svg id="レイヤー_1" data-name="レイヤー 1" xmlns="http://www.w3.org/2000/svg" viewBox="0 0 23 23"><defs>
<style>.cls-1{fill:#7f1084;}.cls-2{fill:none;}</style></defs>
<path class="cls-1" d="M19.16,13.39a2.67,2.67,0,0,0-1,.19L13,4.66a2.54,2.54,0,1,0-3.06,0L4.82,13.58a2.67,2.67,0,0,0-1-.19,2.54,2.54,0,1,0,2.5,2.85H16.66a2.53,2.53,0,1,0,2.5-2.85ZM10.52,5a2.5,2.5,0,0,0,2,0l5.15,8.92a2.5,2.5,0,0,0-1,1.7H6.34a2.47,2.47,0,0,0-1-1.7Z"/>
    

<circle class="cls-2" cx="11.5" cy="11.5" r="11.5">
</circle>
</svg>