<svg xmlns="http://www.w3.org/2000/svg" width="41.27" height="50" viewBox="0 0 41.27 50"><path d="M36.349,44.444a7.935,7.935,0,0,0-7.57-5.556H12.49a7.935,7.935,0,0,0-7.57,5.556l-1.1,3.492A1.587,1.587,0,0,0,5.337,50h30.6a1.587,1.587,0,0,0,1.514-2.063l-1.1-3.492ZM5.337,48.413l1.1-3.492a6.347,6.347,0,0,1,6.055-4.444H28.78a6.347,6.347,0,0,1,6.055,4.444l1.1,3.492H5.337Z" fill="#fff"/><path d="M14.286,20.635c-1.837,0-3.175,2.006-3.175,4.365s1.337,4.365,3.175,4.365S17.46,27.359,17.46,25,16.123,20.635,14.286,20.635Zm0,7.143c-.793,0-1.587-1.192-1.587-2.778s.795-2.778,1.587-2.778S15.873,23.414,15.873,25,15.078,27.778,14.286,27.778Z" fill="#fff"/><path d="M26.984,20.635c-1.837,0-3.175,2.006-3.175,4.365s1.337,4.365,3.175,4.365S30.159,27.359,30.159,25,28.821,20.635,26.984,20.635Zm0,7.143c-.793,0-1.587-1.192-1.587-2.778s.795-2.778,1.587-2.778S28.571,23.414,28.571,25,27.777,27.778,26.984,27.778Z" fill="#fff"/><path d="M40.476,20.635h-3l.873-5.883a3.175,3.175,0,0,0-3.14-3.641H21.429V6.237a3.175,3.175,0,1,0-1.587,0v4.874H6.061a3.175,3.175,0,0,0-3.14,3.641l.873,5.883h-3A.794.794,0,0,0,0,21.428l.794,7.143a.794.794,0,0,0,.794.794h3.5l.138.932a6.349,6.349,0,0,0,6.28,5.417H29.762a6.349,6.349,0,0,0,6.28-5.417l.138-.932h3.5a.794.794,0,0,0,.794-.794l.794-7.143a.794.794,0,0,0-.794-.794ZM19.048,3.175a1.587,1.587,0,1,1,1.587,1.587A1.587,1.587,0,0,1,19.048,3.175ZM2.381,27.778l-.794-5.556H4.03l.824,5.556Zm27.381,6.349H11.508A4.762,4.762,0,0,1,6.8,30.064L4.491,14.519a1.587,1.587,0,0,1,1.57-1.82H35.208a1.587,1.587,0,0,1,1.57,1.82L34.472,30.064a4.762,4.762,0,0,1-4.71,4.063Zm9.127-6.349H36.416l.824-5.556h2.442Z" fill="#fff"/></svg>