<svg xmlns="http://www.w3.org/2000/svg" xmlns:xlink="http://www.w3.org/1999/xlink" width="18.449" height="18.449" viewBox="0 0 18.449 18.449">
  <defs>
    <clipPath id="clip-path">
      <rect id="Rectangle_9" data-name="Rectangle 9" width="18.449" height="18.449" transform="translate(0 0)" fill="none" stroke="rgba(0,0,0,0)" stroke-miterlimit="10" stroke-width="1"/>
    </clipPath>
  </defs>
  <g id="Group_10" data-name="Group 10" transform="translate(-1116 -153)">
    <g id="Group_9" data-name="Group 9" transform="translate(1116 153)">
      <g id="Group_8" data-name="Group 8" clip-path="url(#clip-path)">
        <path id="Path_23" data-name="Path 23" d="M17.595,6.772A8.722,8.722,0,1,1,6.772.854,8.722,8.722,0,0,1,17.595,6.772Z" fill="none" stroke="#fff" stroke-linecap="round" stroke-linejoin="round" stroke-width="1"/>
        <path id="Path_24" data-name="Path 24" d="M2.542,3.618s.24,2.12,4.223,1.962c2.489-.1,5.418-2.561,5.258-4.616" fill="none" stroke="#fff" stroke-miterlimit="10" stroke-width="1"/>
        <path id="Path_25" data-name="Path 25" d="M15.6,3.276C15.919,5.937,12.945,9.9,7.995,10.3,2.139,10.777.637,7.7.637,7.7" fill="none" stroke="#fff" stroke-miterlimit="10" stroke-width="1"/>
        <path id="Path_26" data-name="Path 26" d="M1.259,12.772s2.667,3.2,8.328,2.26c4.94-.821,8.157-4.174,8.249-7.182" fill="none" stroke="#fff" stroke-miterlimit="10" stroke-width="1"/>
        <path id="Path_27" data-name="Path 27" d="M10.456,17.857s-1.885-1.361-3.17-6.1a24.586,24.586,0,0,1-.677-8.95C7.037.513,8.461.537,8.461.537" fill="none" stroke="#fff" stroke-miterlimit="10" stroke-width="1"/>
        <path id="Path_28" data-name="Path 28" d="M7.286,17.729a8.984,8.984,0,0,1-4.4-8.977c.491-5.476,3.724-5.945,3.724-5.945,3.4-.1,6.03,2.488,7.318,5.043a9.83,9.83,0,0,1-.36,8.937" fill="none" stroke="#fff" stroke-miterlimit="10" stroke-width="1"/>
        <path id="Path_29" data-name="Path 29" d="M6.609,2.807c3.464-2.431,7.869.266,10.043,1.845" fill="none" stroke="#fff" stroke-miterlimit="10" stroke-width="1"/>
        <path id="Path_30" data-name="Path 30" d="M3.543,2.606a3.361,3.361,0,0,1,3.066.2" fill="none" stroke="#fff" stroke-miterlimit="10" stroke-width="1"/>
      </g>
    </g>
  </g>
</svg>
