<svg xmlns="http://www.w3.org/2000/svg" xmlns:xlink="http://www.w3.org/1999/xlink" width="20.448" height="17.688" viewBox="0 0 20.448 17.688">
  <defs>
    <clipPath id="clip-path">
      <rect id="Rectangle_11" data-name="Rectangle 11" width="20.448" height="17.688" transform="translate(0 0)" fill="none" stroke="rgba(0,0,0,0)" stroke-miterlimit="10" stroke-width="1"/>
    </clipPath>
  </defs>
  <g id="Group_7280" data-name="Group 7280" transform="translate(0 0)">
    <g id="Group_13" data-name="Group 13" clip-path="url(#clip-path)">
      <path id="Path_33" data-name="Path 33" d="M1.278,7.928a7.359,7.359,0,0,1-1.11-.312V8.768a6.153,6.153,0,0,0,2.26.379v1.567h.8V9.119A3.17,3.17,0,0,0,4.872,8.57a1.91,1.91,0,0,0,.756-1.6,2.262,2.262,0,0,0-.21-.99,1.9,1.9,0,0,0-.732-.768,5.2,5.2,0,0,0-1.463-.568V2.306a5.615,5.615,0,0,1,1.937.342V1.5a5.494,5.494,0,0,0-.93-.216A8.023,8.023,0,0,0,3.223,1.2V0h-.8V1.212A3.146,3.146,0,0,0,.744,1.76,1.905,1.905,0,0,0,0,3.356,1.844,1.844,0,0,0,.5,4.73a3.922,3.922,0,0,0,1.752.822c.064.016.111.03.172.046V8.046a5.93,5.93,0,0,1-1.15-.118M2.07,4.292a1.306,1.306,0,0,1-.582-.372.893.893,0,0,1-.168-.564.835.835,0,0,1,.48-.828,2.323,2.323,0,0,1,.628-.175V4.411c-.128-.04-.258-.082-.358-.119M3.48,5.918a1.5,1.5,0,0,1,.636.414.988.988,0,0,1,.192.636.857.857,0,0,1-.462.864A2.272,2.272,0,0,1,3.223,8V5.831c.085.029.185.059.257.087" fill="#fff" stroke="rgba(0,0,0,0)" stroke-miterlimit="10" stroke-width="1"/>
      <path id="Path_34" data-name="Path 34" d="M17.57,16.392V6.358h-2.5V16.392H12.544V8.713h-2.5v7.679H7.519V11.375h-2.5v5.017H2.141v1.3H20.448v-1.3Z" fill="#fff" stroke="rgba(0,0,0,0)" stroke-miterlimit="10" stroke-width="1"/>
    </g>
  </g>
</svg>
