<svg xmlns="http://www.w3.org/2000/svg" xmlns:xlink="http://www.w3.org/1999/xlink" width="45" height="45" viewBox="0 0 45 45">
  <defs>
    <clipPath id="clip-path">
      <rect id="Rectangle_4688" data-name="Rectangle 4688" width="15.756" height="17.528" transform="translate(0 0)" fill="none"/>
    </clipPath>
  </defs>
  <g id="Group_7279" data-name="Group 7279" transform="translate(-3492 -530)">
    <g id="Group_7278" data-name="Group 7278" transform="translate(3508 543.736)" clip-path="url(#clip-path)">
      <path id="Path_6936" data-name="Path 6936" d="M12.6,12.231l-.215.186-1.848-2.282a6.176,6.176,0,0,0,.5-.62,6.066,6.066,0,1,0-1.635,1.6l1.85,2.284-.216.186,2.883,3.561a1.034,1.034,0,0,0,1.607-1.3Zm-8.73-3a3.842,3.842,0,1,1,5.346-.974,3.843,3.843,0,0,1-5.346.974" fill="#fff"/>
    </g>
    <g id="Ellipse_2" data-name="Ellipse 2" transform="translate(3492 530)" fill="none" stroke="#fff" stroke-width="1">
      <circle cx="22.5" cy="22.5" r="22.5" stroke="none"/>
      <circle cx="22.5" cy="22.5" r="22" fill="none"/>
    </g>
  </g>
</svg>
